<svg xmlns="http://www.w3.org/2000/svg" width="102" height="102" viewBox="0 0 102 102">
  <g id="Group_34" data-name="Group 34" transform="translate(1.5 1.5)">
    <g id="Group_16" data-name="Group 16">
      <circle id="Ellipse_5" data-name="Ellipse 5" cx="49.5" cy="49.5" r="49.5" fill="none" stroke="#fff" stroke-miterlimit="10" stroke-width="3"/>
    </g>
    <g id="Group_33" data-name="Group 33" transform="translate(18.007 30.766)">
      <g id="Group_18" data-name="Group 18">
        <g id="Group_17" data-name="Group 17">
          <path id="Path_206" data-name="Path 206" d="M101.616,77.7H96.327a.929.929,0,1,0,0,1.857h5.289a5.626,5.626,0,0,1,5.612,5.612V107.7a5.626,5.626,0,0,1-5.612,5.612H87.929V79.557h4.4a.929.929,0,1,0,0-1.857H53.569a7.435,7.435,0,0,0-7.429,7.429V100.27a.929.929,0,0,0,1.857,0V85.17a5.626,5.626,0,0,1,5.612-5.612H67.3v26.4a.929.929,0,0,0,1.857,0V79.557H76.7V88.8a7.689,7.689,0,0,0,0,15.262v9.246H69.15V109.8a.929.929,0,0,0-1.857,0v3.513H53.569a5.626,5.626,0,0,1-5.612-5.612v-3.392a.929.929,0,1,0-1.857,0V107.7a7.435,7.435,0,0,0,7.429,7.429h48.046A7.435,7.435,0,0,0,109,107.7V85.169a7.41,7.41,0,0,0-7.384-7.469ZM71.738,96.434a5.854,5.854,0,1,1,5.854,5.854,5.854,5.854,0,0,1-5.854-5.854ZM86.071,113.27h-7.55v-9.246a7.689,7.689,0,0,0,0-15.262v-9.2h7.55Z" transform="translate(-46.1 -77.7)" fill="#fff"/>
        </g>
      </g>
      <g id="Group_20" data-name="Group 20" transform="translate(28.303 15.544)">
        <g id="Group_19" data-name="Group 19">
          <path id="Path_207" data-name="Path 207" d="M119.39,116.2a3.19,3.19,0,1,0,3.19,3.19A3.19,3.19,0,0,0,119.39,116.2Zm0,4.522a1.332,1.332,0,1,1,1.332-1.332,1.332,1.332,0,0,1-1.332,1.332Z" transform="translate(-116.2 -116.2)" fill="#fff"/>
        </g>
      </g>
      <g id="Group_22" data-name="Group 22" transform="translate(55.718 15.544)">
        <g id="Group_21" data-name="Group 21">
          <path id="Path_208" data-name="Path 208" d="M186.846,116.2h-1.817a.929.929,0,0,0,0,1.857h.888v2.665h-.888a.929.929,0,1,0,0,1.857h1.817a.914.914,0,0,0,.929-.929v-4.522a.939.939,0,0,0-.929-.928Z" transform="translate(-184.1 -116.2)" fill="#fff"/>
        </g>
      </g>
      <g id="Group_24" data-name="Group 24" transform="translate(3.553 15.544)">
        <g id="Group_23" data-name="Group 23">
          <path id="Path_209" data-name="Path 209" d="M57.646,120.722h-.888v-2.665h.888a.929.929,0,0,0,0-1.857H55.829a.914.914,0,0,0-.929.929v4.522a.914.914,0,0,0,.929.929h1.817a.929.929,0,0,0,0-1.857Z" transform="translate(-54.9 -116.2)" fill="#fff"/>
        </g>
      </g>
      <g id="Group_26" data-name="Group 26" transform="translate(47.4 3.472)">
        <g id="Group_25" data-name="Group 25">
          <path id="Path_210" data-name="Path 210" d="M170,86.3a4.631,4.631,0,0,0-4.522,3.674h-1.05a.929.929,0,1,0,0,1.857h1.05a4.573,4.573,0,0,0,3.593,3.593v.727a.929.929,0,0,0,1.857,0v-.727A4.61,4.61,0,0,0,170,86.3Zm0,7.348a2.746,2.746,0,1,1,2.746-2.746A2.746,2.746,0,0,1,170,93.648Z" transform="translate(-163.5 -86.3)" fill="#fff"/>
        </g>
      </g>
      <g id="Group_28" data-name="Group 28" transform="translate(47.4 23.216)">
        <g id="Group_27" data-name="Group 27">
          <path id="Path_211" data-name="Path 211" d="M170.929,136.855v-.727a.929.929,0,1,0-1.857,0v.727a4.573,4.573,0,0,0-3.593,3.593h-1.05a.929.929,0,0,0,0,1.857h1.05a4.61,4.61,0,1,0,5.451-5.451ZM170,144.123a2.746,2.746,0,1,1,2.746-2.746A2.746,2.746,0,0,1,170,144.123Z" transform="translate(-163.5 -135.2)" fill="#fff"/>
        </g>
      </g>
      <g id="Group_30" data-name="Group 30" transform="translate(4.441 23.216)">
        <g id="Group_29" data-name="Group 29">
          <path id="Path_212" data-name="Path 212" d="M67.275,140.449h-1.05a4.573,4.573,0,0,0-3.593-3.593v-.727a.929.929,0,1,0-1.857,0v.727a4.61,4.61,0,1,0,5.451,5.451h1.05a.929.929,0,1,0,0-1.857ZM61.7,144.123a2.746,2.746,0,1,1,2.746-2.746A2.746,2.746,0,0,1,61.7,144.123Z" transform="translate(-57.1 -135.2)" fill="#fff"/>
        </g>
      </g>
      <g id="Group_32" data-name="Group 32" transform="translate(4.441 3.472)">
        <g id="Group_31" data-name="Group 31">
          <path id="Path_213" data-name="Path 213" d="M67.275,89.974h-1.05a4.61,4.61,0,1,0-5.451,5.451v.727a.929.929,0,1,0,1.857,0v-.727a4.573,4.573,0,0,0,3.593-3.593h1.05a.929.929,0,1,0,0-1.857ZM61.7,93.648A2.746,2.746,0,1,1,64.448,90.9,2.746,2.746,0,0,1,61.7,93.648Z" transform="translate(-57.1 -86.3)" fill="#fff"/>
        </g>
      </g>
    </g>
  </g>
</svg>
