<svg xmlns="http://www.w3.org/2000/svg" width="141.903" height="28.105" viewBox="0 0 141.903 28.105">
  <g id="icici-bank-vector-logo" transform="translate(0 0)">
    <path id="Path_6104" data-name="Path 6104" d="M130.5,335.2h4.8l3.737-14h-4.778Z" transform="translate(-104.703 -307.333)" fill="#fff" fill-rule="evenodd"/>
    <path id="Path_6105" data-name="Path 6105" d="M234.5,335.2h4.778l3.761-14h-4.778Z" transform="translate(-184.105 -307.333)" fill="#fff" fill-rule="evenodd"/>
    <path id="Path_6106" data-name="Path 6106" d="M338.5,335.2h4.778l3.761-14h-4.778Z" transform="translate(-263.507 -307.333)" fill="#fff" fill-rule="evenodd"/>
    <g id="Group_34885" data-name="Group 34885" transform="translate(0 0)">
      <path id="Path_6107" data-name="Path 6107" d="M177.151,326.078h4.8c.639-3.146-1.4-4.778-6.1-4.778-5.44,0-9.13,2.649-10.359,7.285-1.112,4.186,1.088,6.741,6.22,6.741,5.156,0,8.231-1.608,9.532-5.2h-4.8a3.7,3.7,0,0,1-3.619,2.412c-2.318,0-3.217-1.466-2.507-4.139.733-2.767,2.483-4.3,4.825-4.3,1.419,0,2.1.662,2.01,1.987" transform="translate(-131.202 -307.409)" fill="#fff" fill-rule="evenodd"/>
      <path id="Path_6108" data-name="Path 6108" d="M281.151,326.078h4.8c.639-3.146-1.4-4.778-6.1-4.778-5.44,0-9.13,2.649-10.359,7.285-1.112,4.186,1.088,6.741,6.22,6.741,5.156,0,8.231-1.608,9.532-5.2h-4.8a3.7,3.7,0,0,1-3.619,2.412c-2.318,0-3.217-1.466-2.507-4.139.733-2.767,2.483-4.3,4.825-4.3,1.419,0,2.1.662,2.01,1.987" transform="translate(-210.605 -307.409)" fill="#fff" fill-rule="evenodd"/>
      <path id="Path_6109" data-name="Path 6109" d="M28.73,268.655c6.41-6.362,14.167-7.994,17.266-3.666,3.1,4.352.378,13.079-6.031,19.418-6.41,6.362-14.167,7.994-17.266,3.666-3.075-4.328-.378-13.056,6.031-19.418" transform="translate(-21.428 -262.569)" fill="#f99d28" fill-rule="evenodd"/>
      <path id="Path_6110" data-name="Path 6110" d="M42.938,265.447a23.685,23.685,0,0,0-2.129,1.821c-5.629,5.534-7.947,13.15-5.18,16.958,2.862,3.808,9.768,2.412,15.468-3.193a21.763,21.763,0,0,0,6.008-9.721,9.126,9.126,0,0,0-1.159-6.1c-2.46-3.382-7.734-3.122-13.008.236" transform="translate(-31.379 -262.744)" fill="#af2a30" fill-rule="evenodd"/>
      <path id="Path_6111" data-name="Path 6111" d="M54.23,294.519c-3,2.247-6.1,3.382-9.13,2.909,1.277.071,2.294-1.348,3.146-3.24a31.269,31.269,0,0,0,1.774-5.416c.591-2.673.639-4.565.331-4.967-.52-.686-1.679-.5-3,.26-.639.355-1.466.118-.473-1.088a24.266,24.266,0,0,1,6.433-4.588c1.585-.449,3.382.166,2.767,1.892-.426,1.23-5.96,15.752-1.845,14.238m4.517-22.493c.757.757.284,2.389-.97,3.666-1.277,1.277-2.956,1.727-3.69.993-.781-.733-.307-2.389.97-3.69,1.3-1.3,2.98-1.7,3.69-.97" transform="translate(-39.501 -269.512)" fill="#fff" fill-rule="evenodd"/>
      <path id="Path_6112" data-name="Path 6112" d="M393.319,333.079l1.088-4.092h3.146c2.412,0,3.477.426,3.051,2.081-.4,1.514-1.585,2.01-3.761,2.01h-3.524m2.578-9.626h2.98c2.247,0,3.264.26,2.909,1.679-.378,1.4-1.585,1.75-3.9,1.75h-2.909ZM389.7,335.3h7.19a8.2,8.2,0,0,0,5.014-1.159,4.928,4.928,0,0,0,1.987-2.791c.52-1.916-.355-3.217-2.554-3.524,2.081-.378,3.382-1.466,3.808-3.122a2.3,2.3,0,0,0-.851-2.815,7.236,7.236,0,0,0-3.69-.591h-7.143Z" transform="translate(-302.598 -307.409)" fill="#fff" fill-rule="evenodd"/>
      <path id="Path_6113" data-name="Path 6113" d="M460.641,343.787l-.047.166a3.743,3.743,0,0,1-3.737,2.909c-1.3,0-1.845-.5-1.608-1.443.355-1.277,1.466-1.632,3.548-1.632h1.845m-1.135,4.494h2.886a14.9,14.9,0,0,1,.449-2.176l1.041-3.9c.686-2.578-.591-3.9-3.832-3.9-3.122,0-5.18,1.088-5.795,2.909h2.767c.355-.922,1.159-1.348,2.483-1.348,1.49,0,2.01.662,1.632,2.081l-.047.166h-1.514c-4.281,0-6.6.781-7.261,3.24-.52,1.916.686,3.146,3.24,3.146a6.2,6.2,0,0,0,4.257-1.585Z" transform="translate(-350.313 -320.388)" fill="#fff" fill-rule="evenodd"/>
      <path id="Path_6114" data-name="Path 6114" d="M505.8,348.357h2.909l1.348-4.99a4.136,4.136,0,0,1,3.879-3.075c1.7,0,2.294.993,1.75,2.98l-1.372,5.109h2.838l1.608-5.984c.686-2.531-.615-4-3.43-4a5.96,5.96,0,0,0-4.565,1.939l.355-1.727H508.26c-.284,1.537-.5,2.483-.591,2.862l-1.868,6.883" transform="translate(-391.238 -320.465)" fill="#fff" fill-rule="evenodd"/>
      <path id="Path_6115" data-name="Path 6115" d="M564.6,335.3h2.815l1.419-5.274,3.808,5.274h3.879l-4.3-5.582,5.818-4.186h-3.642l-5.416,3.95,2.2-8.183h-2.815Z" transform="translate(-436.131 -307.409)" fill="#fff" fill-rule="evenodd"/>
    </g>
  </g>
</svg>
