<svg id="BellSimple" xmlns="http://www.w3.org/2000/svg" width="24" height="24" viewBox="0 0 24 24">
  <rect id="BellSimple_Background_" data-name="BellSimple (Background)" width="24" height="24" fill="none"/>
  <g id="BellSimple-2" data-name="BellSimple">
    <path id="Vector" d="M24,0V24H0V0Z" fill="none"/>
    <path id="Vector-2" data-name="Vector" d="M0,0H6" transform="translate(9 21)" fill="none" stroke="#fff" stroke-linecap="round" stroke-linejoin="round" stroke-width="1.5" stroke-dasharray="0 0"/>
    <path id="Vector-3" data-name="Vector" d="M1.939,4.158A6.73,6.73,0,0,1,14.887,6.835V7.5a12.611,12.611,0,0,0,1.321,6.371A.75.75,0,0,1,15.564,15H.748A.75.75,0,0,1,.1,13.871,12.606,12.606,0,0,0,1.425,7.5V6.75A6.741,6.741,0,0,1,1.939,4.158Z" transform="translate(3.844 3)" fill="none" stroke="#fff" stroke-linecap="round" stroke-linejoin="round" stroke-width="1.5" stroke-dasharray="0 0"/>
  </g>
</svg>
