<svg xmlns="http://www.w3.org/2000/svg" width="60" height="60" viewBox="0 0 60 60">
  <g id="Group_35304" data-name="Group 35304" transform="translate(-454.922 -329)">
    <circle id="Ellipse_42" data-name="Ellipse 42" cx="30" cy="30" r="30" transform="translate(454.922 329)" fill="#fece00"/>
    <g id="Group_35303" data-name="Group 35303" transform="translate(470.828 344.852)">
      <g id="Group_35302" data-name="Group 35302" transform="translate(0 0)">
        <g id="Group_35301" data-name="Group 35301">
          <path id="Path_6258" data-name="Path 6258" d="M559.346,429.108h.068c.041,0,.082,0,.122.006s.107.008.161.014.086.012.128.019.1.016.153.027.08.019.133.033l.018,0c.042.011.083.021.125.034s.077.026.115.04l.024.009.039.014c.031.011.062.022.092.035s.076.035.113.053l.03.014.052.024c.023.011.045.021.067.033.039.021.077.045.115.068l.031.019.06.036c.015.009.03.017.045.027.048.032.094.068.14.1l.017.013.064.047.019.013c.081.066.156.135.226.2l2.56,2.56c.069.069.138.145.2.223l.017.023.047.063.014.019c.035.045.07.09.1.138.01.015.019.031.028.046l.035.059.02.032c.023.038.047.075.068.115.012.022.022.045.033.068l.024.051.014.03c.018.037.036.075.052.113s.023.06.034.091l.014.04.009.024c.014.038.028.076.04.116s.023.081.033.122l.008.03c.011.041.022.083.031.125s.019.1.026.151.014.086.019.13.01.107.014.16,0,.081.006.122q0,.084,0,.168c0,.038,0,.076-.005.114,0,.059-.009.117-.016.174,0,.035-.009.07-.015.1-.01.061-.02.121-.034.181-.006.028-.014.056-.023.093-.016.063-.033.125-.052.186,0,.016-.011.032-.017.048l-.012.033c-.023.064-.046.128-.073.19l-.011.025-.02.043c-.03.066-.061.131-.1.2l-.027.046c-.046.079-.081.138-.115.187l-.031.042c-.058.083-.108.149-.155.205-.072.086-.128.148-.182.2l-1.732,1.732a1.511,1.511,0,0,0,0,2.135l7.487,7.487a1.51,1.51,0,0,0,2.135,0l1.732-1.732c.054-.054.116-.11.2-.182.057-.047.122-.1.205-.155l.042-.03c.05-.034.109-.07.19-.116l.05-.03c.064-.035.13-.066.2-.1l.042-.02.023-.011c.063-.027.127-.051.192-.073l.033-.012.046-.016c.062-.02.125-.037.2-.055l.082-.02c.061-.013.121-.024.183-.034l.1-.015c.059-.007.117-.012.177-.017l.112-.005.1,0h.067c.041,0,.082,0,.122.006s.107.008.161.014.086.012.128.019.1.016.153.027.08.019.133.033l.018,0c.042.011.083.021.125.034s.077.026.115.04l.024.009.039.014c.031.011.062.022.093.035s.076.034.113.052l.03.014.052.024c.023.011.045.021.067.033.039.021.077.045.116.068l.031.019.06.036c.015.009.03.017.045.027.048.032.094.068.141.1l.017.013.064.047.018.013c.081.066.157.135.226.2l2.56,2.56c.069.069.138.145.2.223l.017.023.047.063.014.019c.035.045.07.091.1.138.01.015.018.031.028.046l.035.059.02.032c.023.038.047.075.067.114.012.022.022.045.033.068l.024.051.015.031c.018.037.036.074.052.112s.023.06.034.09l.015.04.009.024c.014.038.028.076.04.116s.023.081.033.121l.008.03c.011.042.022.083.031.126s.019.1.026.15.014.086.019.13.01.107.013.16.005.081.006.122c0,.056,0,.112,0,.168,0,.038,0,.076-.005.114,0,.059-.009.117-.016.174,0,.035-.009.07-.015.1-.01.061-.02.121-.034.181-.006.028-.013.056-.023.093-.016.063-.033.125-.052.186-.005.016-.011.032-.017.048l-.012.033c-.023.064-.046.128-.072.19l-.012.025-.02.043c-.03.066-.061.131-.1.2l-.027.046c-.046.079-.081.138-.115.187l-.031.042c-.058.083-.108.149-.155.2-.072.086-.128.148-.182.2l-.008.008-.008.008a7.226,7.226,0,0,1-5.331,2.043c-4.073,0-8.758-2.46-13.2-6.931-4.51-4.474-6.97-9.2-6.926-13.294a7.194,7.194,0,0,1,2.043-5.226l.009-.008.008-.008c.054-.054.116-.11.2-.182.057-.047.122-.1.205-.155l.042-.03c.05-.034.109-.07.19-.116l.05-.03c.064-.035.13-.066.2-.1l.042-.02.023-.011c.063-.027.127-.051.192-.073l.033-.012.045-.016c.062-.02.125-.037.2-.055l.082-.02c.061-.013.121-.024.183-.034l.1-.015c.059-.007.117-.013.177-.017l.112-.005h.1m0-.941-.13,0-.147.007q-.115.007-.229.022l-.134.019c-.08.012-.159.027-.238.044l-.12.029c-.082.021-.164.043-.245.069l-.1.036c-.084.03-.168.061-.251.1l-.087.04c-.086.039-.172.081-.256.126l-.067.039c-.089.051-.176.1-.261.161l-.041.03c-.092.064-.182.131-.27.2h0c-.09.076-.18.154-.264.238-3.55,3.378-3.867,11.2,4.868,19.872,5.177,5.216,10.052,7.2,13.859,7.2a8.13,8.13,0,0,0,6.013-2.336c.085-.085.163-.174.238-.264h0c.073-.087.139-.177.2-.268.01-.014.021-.028.031-.042.058-.085.11-.172.16-.26.013-.023.028-.045.04-.068.046-.084.087-.169.126-.254.013-.03.028-.058.041-.088.036-.082.066-.166.1-.25.012-.035.025-.07.037-.105.026-.081.048-.162.069-.244.01-.041.021-.081.03-.121.017-.078.031-.157.044-.237.007-.045.014-.09.02-.136.009-.076.016-.152.021-.228,0-.05.006-.1.007-.149,0-.073,0-.146,0-.219,0-.053,0-.106-.008-.159,0-.07-.01-.139-.018-.209s-.015-.113-.024-.169-.021-.132-.035-.2-.028-.118-.043-.177-.032-.123-.051-.184-.042-.122-.064-.183-.04-.114-.064-.171-.057-.125-.087-.187-.048-.105-.076-.156-.075-.129-.113-.193c-.028-.046-.054-.093-.084-.138-.047-.071-.1-.138-.152-.207-.027-.036-.052-.073-.08-.108-.083-.1-.172-.2-.267-.3l-2.56-2.56c-.095-.095-.194-.183-.3-.267-.035-.028-.072-.053-.107-.08-.068-.052-.136-.1-.207-.152-.045-.03-.091-.055-.137-.083-.064-.039-.127-.079-.193-.114s-.1-.051-.156-.076-.124-.06-.188-.087-.114-.043-.172-.064-.121-.044-.182-.063-.124-.035-.186-.051-.117-.03-.175-.043-.132-.025-.2-.035-.112-.018-.168-.024-.139-.013-.209-.018c-.053,0-.106-.006-.159-.008h-.09l-.129,0-.147.007c-.077.005-.153.012-.229.022l-.134.019c-.08.013-.159.027-.238.044-.04.009-.08.019-.12.029-.082.021-.164.043-.245.069l-.1.036c-.084.03-.168.061-.251.1-.029.012-.058.027-.087.04-.086.04-.172.081-.256.126l-.067.04c-.088.051-.176.1-.261.161l-.041.03c-.092.064-.182.131-.269.2h0c-.091.076-.18.154-.264.239l-1.732,1.732a.568.568,0,0,1-.8,0L563,440.092a.568.568,0,0,1,0-.8l1.732-1.732c.085-.085.163-.174.239-.264h0c.073-.087.139-.177.2-.268.01-.014.021-.027.031-.042.058-.085.11-.172.161-.259.013-.023.027-.045.04-.068.046-.083.087-.169.126-.254.013-.03.028-.058.041-.088.036-.082.066-.166.1-.25.012-.035.025-.07.037-.105.026-.081.048-.162.069-.244.01-.04.02-.081.029-.121.017-.078.031-.157.044-.237.007-.045.014-.09.019-.136q.014-.114.021-.228c0-.05.006-.1.007-.148,0-.073,0-.146,0-.219,0-.053,0-.106-.008-.159,0-.07-.01-.139-.018-.209s-.015-.113-.024-.169-.021-.132-.035-.2-.028-.118-.043-.177-.031-.123-.051-.184-.042-.122-.064-.183-.041-.114-.064-.171-.057-.125-.087-.187-.048-.105-.076-.156-.075-.129-.113-.193c-.028-.046-.054-.093-.084-.138-.047-.071-.1-.138-.152-.207-.027-.036-.052-.073-.08-.108-.083-.1-.172-.2-.267-.3l-2.56-2.56c-.095-.095-.194-.183-.3-.267-.035-.029-.071-.053-.107-.08-.068-.052-.136-.1-.207-.152-.045-.03-.091-.055-.137-.083-.064-.039-.127-.079-.193-.114s-.1-.051-.156-.076-.124-.06-.188-.087-.114-.043-.172-.064-.12-.044-.182-.063-.124-.035-.186-.051-.117-.03-.176-.043-.132-.025-.2-.035-.112-.018-.168-.024-.139-.014-.209-.018c-.053,0-.106-.006-.159-.008Z" transform="translate(-554.168 -428.167)"/>
        </g>
      </g>
      <path id="Path_6259" data-name="Path 6259" d="M563.295,432.189l3.812,4.281v2.488l-1.906,2.369-.811,1.218,7.833,8.472h1.309l3.486-3.037,2.078.32,4.378,4.111.578,3.083-2.718,2.558-2.877,1.119-5.517-.624-7.911-4.971-5.915-7.034-2.558-6.394.559-4.573,2.478-3.74Z" transform="translate(-556.175 -431.247)"/>
    </g>
  </g>
</svg>
