<svg xmlns="http://www.w3.org/2000/svg" width="16.59" height="16.59" viewBox="0 0 16.59 16.59">
  <g id="Page-1" transform="translate(0 0)">
    <g id="Icons" transform="translate(1 1)">
      <g id="_30--Steam--_social_-media_-communication_-retro_" data-name="30--Steam--(social,-media,-communication,-retro)" transform="translate(0 0)">
        <path id="Fill-55" d="M12.074,14.59H2.515A2.515,2.515,0,0,1,0,12.074V2.516A2.515,2.515,0,0,1,2.515,0h9.559A2.515,2.515,0,0,1,14.59,2.516v9.559a2.515,2.515,0,0,1-2.515,2.515" transform="translate(0 0)" fill="#707070" fill-rule="evenodd"/>
        <path id="Stroke-56" d="M12.074,14.59H2.515A2.515,2.515,0,0,1,0,12.074V2.516A2.515,2.515,0,0,1,2.515,0h9.559A2.515,2.515,0,0,1,14.59,2.516v9.559a2.515,2.515,0,0,1-2.515,2.515Z" transform="translate(0 0)" fill="#707070" stroke="#707070" stroke-width="2" fill-rule="evenodd"/>
        <path id="Fill-141" d="M32.27,13.54a3.27,3.27,0,1,1,3.27-3.27,3.274,3.274,0,0,1-3.27,3.27" transform="translate(-21.705 -5.239)" fill="#262a34" fill-rule="evenodd"/>
        <path id="Stroke-142" d="M36.761,16.522a1.761,1.761,0,1,1,1.761-1.761,1.763,1.763,0,0,1-1.761,1.761Z" transform="translate(-26.196 -9.73)" fill="none" stroke="#707070" stroke-width="2" fill-rule="evenodd"/>
        <path id="Stroke-143" d="M16.863,35a1.438,1.438,0,0,0-.642.139l.39.165a1.069,1.069,0,0,1,.686,1.332h0a1.07,1.07,0,0,1-1.391.576l-.433-.174A1.5,1.5,0,1,0,16.863,35Z" transform="translate(-11.58 -26.196)" fill="none" stroke="#707070" stroke-width="2" fill-rule="evenodd"/>
        <path id="Fill-149" d="M21.79,19.485a3.269,3.269,0,0,1,3.061,3.057l2.722-1.914a3.259,3.259,0,0,1-3.815-4.018Z" transform="translate(-16.309 -12.431)" fill="#262a34" fill-rule="evenodd"/>
        <path id="Fill-150" d="M13,30a2.634,2.634,0,0,0-1.548.465l1.493.633a1.572,1.572,0,0,1,.963,1.967,1.516,1.516,0,0,1-1.456.978,1.716,1.716,0,0,1-.577-.1l-1.562-.626A2.824,2.824,0,0,0,13,35.534,2.767,2.767,0,1,0,13,30" transform="translate(-7.718 -22.454)" fill="#262a34" fill-rule="evenodd"/>
        <path id="Fill-151" d="M3,29l4.275,1.813a1.069,1.069,0,0,1,.686,1.332h0a1.07,1.07,0,0,1-1.391.576L3,31.29Z" transform="translate(-2.245 -21.705)" fill="#262a34" fill-rule="evenodd"/>
      </g>
    </g>
  </g>
</svg>
