<svg xmlns="http://www.w3.org/2000/svg" width="28.633" height="28.633" viewBox="0 0 28.633 28.633">
  <path id="Icon_awesome-globe-americas" data-name="Icon awesome-globe-americas" d="M14.317.563A14.317,14.317,0,1,0,28.633,14.879,14.316,14.316,0,0,0,14.317.563Zm4.75,20.644c-.225.224-.461.459-.653.651a1.38,1.38,0,0,0-.356.618c-.087.327-.158.657-.275.974l-1,2.7a11.537,11.537,0,0,1-2.462.271V24.844a4.322,4.322,0,0,0-1.306-2.959,1.847,1.847,0,0,1-.541-1.306V18.731a1.841,1.841,0,0,0-.95-1.615c-.83-.459-2.01-1.1-2.818-1.507a8.322,8.322,0,0,1-1.827-1.256l-.046-.042a6.627,6.627,0,0,1-1.043-1.2c-.541-.795-1.424-2.1-2-2.952A11.608,11.608,0,0,1,9.746,4.281l1.386.693a.924.924,0,0,0,1.337-.826V3.5a11.537,11.537,0,0,1,1.408-.14L15.511,4.99a.924.924,0,0,1,0,1.306l-.271.27-.6.6a.462.462,0,0,0,0,.653l.271.271a.462.462,0,0,1,0,.653l-.462.462a.462.462,0,0,1-.327.135h-.519a.462.462,0,0,0-.322.131l-.573.557a.462.462,0,0,0-.091.537l.9,1.8a.462.462,0,0,1-.413.668h-.326a.461.461,0,0,1-.3-.113l-.536-.465a.925.925,0,0,0-.9-.179l-1.8.6a.69.69,0,0,0-.09,1.272l.64.32a3.91,3.91,0,0,0,1.75.413c.607,0,1.3,1.575,1.847,1.847h3.853a1.848,1.848,0,0,1,1.306.541l.79.79a1.761,1.761,0,0,1,.516,1.245,2.686,2.686,0,0,1-.792,1.9Zm5.006-5.273a1.386,1.386,0,0,1-.817-.576L22.218,13.8a1.384,1.384,0,0,1,0-1.537l1.131-1.7a1.384,1.384,0,0,1,.533-.47l.749-.375a11.184,11.184,0,0,1,1.126,6.631Z" transform="translate(0 -0.563)" fill="#fff"/>
</svg>
