<svg xmlns="http://www.w3.org/2000/svg" width="24" height="12" viewBox="0 0 24 12">
  <path id="_9426630701595988980" data-name="9426630701595988980" d="M20,14a5.6,5.6,0,0,0-3.086.857H14.857c0-.023-1.7.009-1.714,0H11.086A5.6,5.6,0,0,0,8,14,6,6,0,1,0,8,26a5.6,5.6,0,0,0,3.086-.857h5.829A5.6,5.6,0,0,0,20,26a6,6,0,1,0,0-12ZM9.714,20.857H8.857v.857A.81.81,0,0,1,8,22.571a.81.81,0,0,1-.857-.857v-.857H6.286a.857.857,0,1,1,0-1.714h.857v-.857A.81.81,0,0,1,8,17.429a.81.81,0,0,1,.857.857v.857h.857a.857.857,0,1,1,0,1.714Zm9.514-2.914c.086-.086.086-.171.171-.257a.782.782,0,0,1,.943-.171c.086.086.171.086.257.171s.171.171.171.257.086.257.086.343a.515.515,0,0,1-.086.343c-.086.086-.086.171-.171.257s-.171.171-.257.171a.515.515,0,0,1-.343.086.778.778,0,0,1-.6-.257c-.086-.086-.171-.171-.171-.257s-.086-.257-.086-.343A.515.515,0,0,1,19.229,17.943Zm-.943,2.914a.778.778,0,0,1-.6-.257c-.086-.086-.171-.171-.171-.257s-.086-.257-.086-.343a.778.778,0,0,1,.257-.6.829.829,0,0,1,1.2,0l.086.086c0,.086.086.086.086.171s0,.086.086.171V20a.879.879,0,0,1-.857.857Zm2.571,1.029c0,.086,0,.086-.086.171,0,.086-.086.086-.086.171l-.086.086c-.086.086-.171.171-.257.171a.515.515,0,0,1-.343.086.851.851,0,1,1,.343-1.629c.086.086.171.086.257.171a.778.778,0,0,1,.257.6C20.857,21.8,20.857,21.8,20.857,21.886Zm1.629-1.543c-.086.086-.086.171-.171.257a.084.084,0,0,0-.086.086c-.086,0-.086.086-.171.086s-.086,0-.171.086h-.171a.778.778,0,0,1-.6-.257c-.086-.086-.171-.171-.171-.257s-.086-.257-.086-.343a.515.515,0,0,1,.086-.343c.086-.086.086-.171.171-.257a1.2,1.2,0,0,1,.771-.257c.086,0,.086,0,.171.086.086,0,.086.086.171.086l.086.086c.086.086.171.171.171.257s.086.257.086.343A.515.515,0,0,1,22.486,20.343Z" transform="translate(-2 -14)" fill="#707070"/>
</svg>
