<svg xmlns="http://www.w3.org/2000/svg" width="25.877" height="25.871" viewBox="0 0 25.877 25.871">
  <path id="Icon_awesome-instagram" data-name="Icon awesome-instagram" d="M12.936,8.54a6.633,6.633,0,1,0,6.633,6.633A6.622,6.622,0,0,0,12.936,8.54Zm0,10.945a4.312,4.312,0,1,1,4.312-4.312A4.32,4.32,0,0,1,12.936,19.485ZM21.387,8.269A1.547,1.547,0,1,1,19.84,6.722,1.544,1.544,0,0,1,21.387,8.269Zm4.393,1.57a7.656,7.656,0,0,0-2.09-5.421,7.707,7.707,0,0,0-5.421-2.09c-2.136-.121-8.538-.121-10.674,0A7.7,7.7,0,0,0,2.175,4.413,7.681,7.681,0,0,0,.086,9.833c-.121,2.136-.121,8.538,0,10.674a7.656,7.656,0,0,0,2.09,5.421A7.716,7.716,0,0,0,7.6,28.018c2.136.121,8.538.121,10.674,0a7.656,7.656,0,0,0,5.421-2.09,7.707,7.707,0,0,0,2.09-5.421c.121-2.136.121-8.532,0-10.668ZM23.021,22.8a4.366,4.366,0,0,1-2.459,2.459c-1.7.675-5.744.52-7.626.52s-5.929.15-7.626-.52A4.366,4.366,0,0,1,2.851,22.8c-.675-1.7-.52-5.744-.52-7.626s-.15-5.929.52-7.626A4.366,4.366,0,0,1,5.31,5.088c1.7-.675,5.744-.52,7.626-.52s5.929-.15,7.626.52a4.366,4.366,0,0,1,2.459,2.459c.675,1.7.52,5.744.52,7.626S23.7,21.1,23.021,22.8Z" transform="translate(0.005 -2.238)" fill="#fff"/>
</svg>
