<svg xmlns="http://www.w3.org/2000/svg" width="20.08" height="19.143" viewBox="0 0 20.08 19.143">
  <path id="Path_4" data-name="Path 4" d="M3,19V10.07a2,2,0,0,1,.89-1.664l7-4.666a2,2,0,0,1,2.22,0l7,4.666A2,2,0,0,1,21,10.07V19M3,19a2,2,0,0,0,2,2H19a2,2,0,0,0,2-2M3,19l6.75-4.5M21,19l-6.75-4.5M3,10l6.75,4.5M21,10l-6.75,4.5m0,0-1.14.76a2,2,0,0,1-2.22,0L9.75,14.5" transform="translate(-1.96 -2.607)" fill="none" stroke="#4f5158" stroke-linecap="round" stroke-linejoin="round" stroke-width="1.5"/>
</svg>
