<svg id="Icon_ionic-ios-mail" data-name="Icon ionic-ios-mail" xmlns="http://www.w3.org/2000/svg" width="24.015" height="16.626" viewBox="0 0 24.015 16.626">
  <path id="Path_6267" data-name="Path 6267" d="M27.194,10.349l-6.212,6.327a.112.112,0,0,0,0,.162l4.347,4.63a.749.749,0,0,1,0,1.062.753.753,0,0,1-1.062,0l-4.33-4.612a.118.118,0,0,0-.167,0l-1.056,1.074a4.648,4.648,0,0,1-3.314,1.4,4.741,4.741,0,0,1-3.383-1.437L11,17.917a.118.118,0,0,0-.167,0L6.5,22.53a.753.753,0,0,1-1.062,0,.749.749,0,0,1,0-1.062l4.347-4.63a.123.123,0,0,0,0-.162L3.571,10.349a.114.114,0,0,0-.2.081V23.09a1.853,1.853,0,0,0,1.847,1.847h20.32A1.853,1.853,0,0,0,27.39,23.09V10.43A.115.115,0,0,0,27.194,10.349Z" transform="translate(-3.375 -8.311)" fill="#fff"/>
  <path id="Path_6268" data-name="Path 6268" d="M15.535,18.445a3.138,3.138,0,0,0,2.257-.947l9.058-9.219a1.814,1.814,0,0,0-1.143-.4H5.369a1.8,1.8,0,0,0-1.143.4L13.283,17.5A3.139,3.139,0,0,0,15.535,18.445Z" transform="translate(-3.527 -7.875)" fill="#fff"/>
</svg>
