<svg xmlns="http://www.w3.org/2000/svg" width="24" height="23.946" viewBox="0 0 24 23.946">
  <g id="call-answer-svgrepo-com" transform="translate(0 -0.394)">
    <g id="Group_34930" data-name="Group 34930" transform="translate(0 0.394)">
      <g id="Group_34929" data-name="Group 34929" transform="translate(0 0)">
        <path id="Path_6134" data-name="Path 6134" d="M23.462,19.334l-3.706-3.707a1.933,1.933,0,0,0-2.725.051l-1.867,1.867-.368-.2A18.582,18.582,0,0,1,10.3,14.091a18.686,18.686,0,0,1-3.255-4.5c-.069-.125-.135-.246-.2-.36L8.1,7.981l.616-.617a1.931,1.931,0,0,0,.05-2.725L5.06.931A1.931,1.931,0,0,0,2.335.983L1.291,2.033l.029.028A6.041,6.041,0,0,0,.458,3.58,6.3,6.3,0,0,0,.075,5.12c-.489,4.057,1.365,7.765,6.4,12.8,6.955,6.955,12.56,6.429,12.8,6.4a6.263,6.263,0,0,0,1.544-.388,6.02,6.02,0,0,0,1.513-.857l.023.02,1.058-1.036A1.934,1.934,0,0,0,23.462,19.334Z" transform="translate(0 -0.394)" fill="#09c8f8"/>
      </g>
    </g>
  </g>
</svg>
