<?xml version="1.0" encoding="utf-8"?>
<!-- Generator: Adobe Illustrator 23.0.1, SVG Export Plug-In . SVG Version: 6.00 Build 0)  -->
<svg version="1.1" xmlns="http://www.w3.org/2000/svg" xmlns:xlink="http://www.w3.org/1999/xlink" x="0px" y="0px"
	 viewBox="0 0 248.1 248.1" style="enable-background:new 0 0 248.1 248.1;" xml:space="preserve">
<style type="text/css">
	.st0{display:none;}
	.st1{display:inline;}
	.st2{opacity:0.25;clip-path:url(#SVGID_2_);}
	.st3{fill:#FFC400;}
	.st4{opacity:0.22;clip-path:url(#SVGID_4_);fill:url(#SVGID_5_);}
	.st5{opacity:0.22;clip-path:url(#SVGID_7_);fill:url(#SVGID_8_);}
	.st6{opacity:0.22;clip-path:url(#SVGID_10_);fill:url(#SVGID_11_);}
	.st7{opacity:0.22;clip-path:url(#SVGID_13_);fill:url(#SVGID_14_);}
	.st8{opacity:0.17;clip-path:url(#SVGID_16_);}
	.st9{opacity:0.5;}
	.st10{fill:#032880;}
	.st11{opacity:0.5;clip-path:url(#SVGID_16_);}
	.st12{clip-path:url(#SVGID_16_);fill:#032880;}
	.st13{opacity:0.22;clip-path:url(#SVGID_16_);}
	.st14{fill:url(#SVGID_17_);}
	.st15{fill:url(#SVGID_18_);}
	.st16{fill:url(#SVGID_19_);}
	.st17{fill:url(#SVGID_20_);}
	.st18{fill:url(#SVGID_21_);}
	.st19{fill:#2D2D2D;}
	.st20{fill:url(#SVGID_22_);}
	.st21{fill:url(#SVGID_23_);}
	.st22{fill:url(#SVGID_24_);}
	.st23{display:inline;fill:#27B016;}
	.st24{opacity:0.22;clip-path:url(#SVGID_26_);fill:url(#SVGID_27_);}
	.st25{opacity:0.22;clip-path:url(#SVGID_29_);fill:url(#SVGID_30_);}
	.st26{opacity:0.17;clip-path:url(#SVGID_32_);}
	.st27{opacity:0.5;clip-path:url(#SVGID_32_);}
	.st28{clip-path:url(#SVGID_32_);fill:#032880;}
	.st29{opacity:0.22;clip-path:url(#SVGID_32_);}
	.st30{fill:url(#SVGID_33_);}
	.st31{fill:url(#SVGID_34_);}
	.st32{fill:url(#SVGID_35_);}
	.st33{fill:url(#SVGID_36_);}
	.st34{fill:url(#SVGID_37_);}
	.st35{fill:url(#SVGID_38_);}
	.st36{fill:url(#SVGID_39_);}
	.st37{fill:url(#SVGID_40_);}
	.st38{opacity:0.22;clip-path:url(#SVGID_42_);fill:url(#SVGID_43_);}
	.st39{opacity:0.22;clip-path:url(#SVGID_45_);fill:url(#SVGID_46_);}
	.st40{opacity:0.17;clip-path:url(#SVGID_48_);}
	.st41{opacity:0.5;clip-path:url(#SVGID_48_);}
	.st42{clip-path:url(#SVGID_48_);fill:#032880;}
	.st43{opacity:0.22;clip-path:url(#SVGID_48_);}
	.st44{fill:url(#SVGID_49_);}
	.st45{fill:url(#SVGID_50_);}
	.st46{fill:url(#SVGID_51_);}
	.st47{fill:url(#SVGID_52_);}
	.st48{fill:url(#SVGID_53_);}
	.st49{fill:url(#SVGID_54_);}
	.st50{fill:url(#SVGID_55_);}
	.st51{fill:url(#SVGID_56_);}
	.st52{display:inline;fill:#FFC400;}
	.st53{display:inline;fill:#636363;}
	.st54{fill:#636363;}
	.st55{fill:#EFF2F4;}
	.st56{fill:#F7F7F7;}
	.st57{fill:#0757E5;}
	.st58{clip-path:url(#SVGID_58_);fill:#E6E4E2;}
	.st59{clip-path:url(#SVGID_58_);fill:#C6BBB6;}
	.st60{opacity:0.33;fill:url(#SVGID_59_);}
	.st61{fill:#FFFFFF;}
	.st62{clip-path:url(#SVGID_65_);fill:url(#SVGID_66_);}
	.st63{clip-path:url(#SVGID_68_);fill:url(#SVGID_69_);}
	.st64{clip-path:url(#SVGID_71_);fill:url(#SVGID_72_);}
	.st65{fill:none;stroke:#282828;stroke-width:2.5;stroke-linejoin:round;stroke-miterlimit:10;}
	.st66{fill:#282828;}
	.st67{fill:none;}
	.st68{clip-path:url(#SVGID_74_);fill:#E6E4E2;}
	.st69{clip-path:url(#SVGID_74_);fill:#C6BBB6;}
	.st70{opacity:0.48;fill:url(#SVGID_75_);}
	.st71{fill:#1E1E1E;}
	.st72{fill-rule:evenodd;clip-rule:evenodd;fill:#1E1E1E;}
	.st73{clip-path:url(#SVGID_77_);}
	.st74{fill:none;stroke:#FFC400;stroke-width:3;stroke-miterlimit:10;}
	.st75{clip-path:url(#SVGID_85_);fill:url(#SVGID_86_);}
	.st76{clip-path:url(#SVGID_88_);fill:url(#SVGID_89_);}
	.st77{clip-path:url(#SVGID_91_);fill:url(#SVGID_92_);}
	.st78{clip-path:url(#SVGID_94_);fill:#E6E4E2;}
	.st79{clip-path:url(#SVGID_94_);fill:#C6BBB6;}
	.st80{opacity:0.48;fill:url(#SVGID_95_);}
	.st81{clip-path:url(#SVGID_97_);}
	.st82{fill:none;stroke:#0757E5;stroke-width:3;stroke-miterlimit:10;}
	.st83{clip-path:url(#SVGID_105_);}
	.st84{clip-path:url(#SVGID_109_);fill:url(#SVGID_110_);}
	.st85{clip-path:url(#SVGID_112_);fill:url(#SVGID_113_);}
	.st86{clip-path:url(#SVGID_115_);fill:url(#SVGID_116_);}
	.st87{clip-path:url(#SVGID_118_);fill:#E6E4E2;}
	.st88{clip-path:url(#SVGID_118_);fill:#C6BBB6;}
	.st89{opacity:0.48;fill:url(#SVGID_119_);}
	.st90{clip-path:url(#SVGID_125_);fill:url(#SVGID_126_);}
	.st91{clip-path:url(#SVGID_128_);fill:url(#SVGID_129_);}
	.st92{clip-path:url(#SVGID_131_);fill:url(#SVGID_132_);}
	.st93{clip-path:url(#SVGID_134_);fill:#E6E4E2;}
	.st94{clip-path:url(#SVGID_134_);fill:#C6BBB6;}
	.st95{opacity:0.48;fill:url(#SVGID_135_);}
	.st96{clip-path:url(#SVGID_137_);}
	.st97{clip-path:url(#SVGID_145_);fill:url(#SVGID_146_);}
	.st98{clip-path:url(#SVGID_148_);fill:url(#SVGID_149_);}
	.st99{clip-path:url(#SVGID_151_);fill:url(#SVGID_152_);}
	.st100{clip-path:url(#SVGID_154_);fill:#E6E4E2;}
	.st101{clip-path:url(#SVGID_154_);fill:#C6BBB6;}
	.st102{opacity:0.48;fill:url(#SVGID_155_);}
	.st103{clip-path:url(#SVGID_157_);}
	.st104{fill:none;stroke:#FFFFFF;stroke-miterlimit:10;}
	.st105{fill:none;stroke:#1E1E1E;stroke-miterlimit:10;}
	.st106{fill:#303030;}
	.st107{fill:url(#SVGID_164_);}
	.st108{fill:url(#SVGID_165_);}
	.st109{fill:url(#SVGID_166_);}
	.st110{clip-path:url(#SVGID_168_);fill:#E6E4E2;}
	.st111{clip-path:url(#SVGID_168_);fill:#C6BBB6;}
	.st112{opacity:0.48;fill:url(#SVGID_169_);}
	.st113{clip-path:url(#SVGID_171_);}
	.st114{fill:url(#SVGID_178_);}
	.st115{fill:url(#SVGID_179_);}
	.st116{fill:url(#SVGID_180_);}
	.st117{clip-path:url(#SVGID_182_);fill:#E6E4E2;}
	.st118{clip-path:url(#SVGID_182_);fill:#C6BBB6;}
	.st119{opacity:0.48;fill:url(#SVGID_183_);}
	.st120{clip-path:url(#SVGID_185_);}
	.st121{fill:url(#SVGID_192_);}
	.st122{fill:url(#SVGID_193_);}
	.st123{fill:url(#SVGID_194_);}
</style>
<g id="background" class="st0">
</g>
<g id="Layer_1">
	<g>
		<g>
			<circle class="st82" cx="124.1" cy="124.1" r="122.6"/>
		</g>
		<g>
			<path class="st57" d="M124,107.7c-7.1,0-12.9-5.8-12.9-12.9c0-7.1,5.8-12.9,12.9-12.9S137,87.7,137,94.8
				C137,101.9,131.2,107.7,124,107.7z M124,86.2c-4.7,0-8.6,3.9-8.6,8.6c0,4.7,3.9,8.6,8.6,8.6c4.7,0,8.6-3.9,8.6-8.6
				C132.6,90.1,128.8,86.2,124,86.2z"/>
			<path class="st57" d="M111.7,197c-1.2,0-2.2-1-2.2-2.2v-34.8h-7.1c-1.2,0-2.2-1-2.2-2.2v-32c0-2.6,1.1-4.9,2.9-6.3
				c6.1-4.5,13.3-6.9,20.8-6.9c7.5,0,14.7,2.4,20.8,6.9c1.8,1.4,2.9,3.7,2.9,6.3v32c0,1.2-1,2.2-2.2,2.2h-7.1v34.8
				c0,1.2-1,2.2-2.2,2.2H111.7z M124.1,117.1c-6.5,0-12.8,2.1-18.2,6.1c-0.7,0.5-1.2,1.6-1.2,2.8v29.8h7.1c1.2,0,2.2,1,2.2,2.2v34.8
				h20.3v-34.8c0-1.2,1-2.2,2.2-2.2h7.1v-29.8c0-1.2-0.5-2.2-1.2-2.8C136.9,119.2,130.6,117.1,124.1,117.1z"/>
			<path class="st57" d="M105.6,64.7c-1.2,0-2.2-1-2.2-2.2c0-1.2,1-2.2,2.2-2.2c1.2,0,2.2,1,2.2,2.2
				C107.7,63.7,106.7,64.7,105.6,64.7z"/>
			<path class="st57" d="M124,64.7c-1.2,0-2.2-1-2.2-2.2c0-1.2,1-2.2,2.2-2.2c1.2,0,2.2,1,2.2,2.2C126.2,63.7,125.2,64.7,124,64.7z"
				/>
			<path class="st57" d="M142.5,64.7c-1.2,0-2.2-1-2.2-2.2c0-1.2,1-2.2,2.2-2.2c1.2,0,2.2,1,2.2,2.2
				C144.7,63.7,143.7,64.7,142.5,64.7z"/>
			<path class="st57" d="M53.3,129.3c-1.2,0-2.2-1-2.2-2.2c0-1.2,1-2.2,2.2-2.2h3.1c1.2,0,2.2,1,2.2,2.2c0,1.2-1,2.2-2.2,2.2H53.3z"
				/>
			<path class="st57" d="M56.6,141.7c-0.8,0-1.5-0.4-1.9-1.1c-0.3-0.5-0.4-1.1-0.2-1.6c0.1-0.6,0.5-1,1-1.3l2.7-1.6
				c0.3-0.2,0.7-0.3,1.1-0.3c0.8,0,1.5,0.4,1.9,1.1c0.3,0.5,0.4,1.1,0.2,1.6c-0.1,0.6-0.5,1-1,1.3l-2.7,1.6
				C57.3,141.6,56.9,141.7,56.6,141.7z"/>
			<path class="st57" d="M59.2,118.4c-0.4,0-0.8-0.1-1.1-0.3l-2.7-1.6c-0.5-0.3-0.9-0.8-1-1.3c-0.1-0.6-0.1-1.1,0.2-1.6
				c0.4-0.7,1.1-1.1,1.9-1.1c0.4,0,0.8,0.1,1.1,0.3l2.7,1.6c0.5,0.3,0.9,0.8,1,1.3c0.1,0.6,0.1,1.1-0.2,1.6
				C60.7,118,60,118.4,59.2,118.4z"/>
			<path class="st57" d="M191.8,129.3c-1.2,0-2.2-1-2.2-2.2c0-1.2,1-2.2,2.2-2.2h3.1c1.2,0,2.2,1,2.2,2.2c0,1.2-1,2.2-2.2,2.2H191.8
				z"/>
			<path class="st57" d="M188.9,118.4c-0.8,0-1.5-0.4-1.9-1.1c-0.3-0.5-0.4-1.1-0.2-1.6c0.1-0.6,0.5-1,1-1.3l2.7-1.6
				c0.3-0.2,0.7-0.3,1.1-0.3c0.8,0,1.5,0.4,1.9,1.1c0.3,0.5,0.4,1.1,0.2,1.6c-0.1,0.6-0.5,1-1,1.3l-2.7,1.6
				C189.7,118.3,189.3,118.4,188.9,118.4z"/>
			<path class="st57" d="M191.6,141.7c-0.4,0-0.8-0.1-1.1-0.3l-2.7-1.6c-0.5-0.3-0.9-0.8-1-1.3c-0.1-0.6-0.1-1.1,0.2-1.6
				c0.4-0.7,1.1-1.1,1.9-1.1c0.4,0,0.8,0.1,1.1,0.3l2.7,1.6c0.5,0.3,0.9,0.8,1,1.3c0.1,0.6,0.1,1.1-0.2,1.6
				C193.1,141.3,192.4,141.7,191.6,141.7z"/>
			<path class="st57" d="M157.9,197c-1.2,0-2.2-1-2.2-2.2v-121H92.4v121c0,1.2-1,2.2-2.2,2.2H71.7c-1.2,0-2.2-1-2.2-2.2v-48.8
				l-2.1,3.7c-0.4,0.7-1.1,1.1-1.9,1.1c-0.4,0-0.7-0.1-1.1-0.3c-0.5-0.3-0.9-0.8-1-1.3c-0.2-0.6-0.1-1.1,0.2-1.6l1.5-2.7
				c0.4-0.7,1.1-1.1,1.9-1.1c0.3,0,0.7,0.1,1,0.2l0,0l0.2,0.1l1.3,0.7v-9.6L69,135c-3.3-1.2-5.6-4.4-5.6-7.9c0-3.5,2.2-6.7,5.6-7.9
				l0.6-0.2v-9.7l-1.5,0.8l0,0c-0.3,0.2-0.6,0.2-1,0.2c-0.8,0-1.5-0.4-1.9-1.1l-1.5-2.7c-0.3-0.5-0.4-1.1-0.2-1.6
				c0.2-0.6,0.5-1,1-1.3c0.3-0.2,0.7-0.3,1.1-0.3c0.8,0,1.5,0.4,1.9,1.1l2.1,3.7V62.5c0-6.3,5.1-11.4,11.4-11.4h86.2
				c6.3,0,11.4,5.1,11.4,11.4v45.8l2.2-3.8c0.4-0.7,1.1-1.1,1.9-1.1c0.4,0,0.7,0.1,1.1,0.3c0.5,0.3,0.9,0.8,1,1.3
				c0.2,0.6,0.1,1.1-0.2,1.6l-1.5,2.7c-0.4,0.7-1.1,1.1-1.9,1.1c-0.4,0-0.7-0.1-1-0.2c0,0-0.1-0.1-0.1-0.1l-1.4-0.9v9.7l0.6,0.2
				c3.4,1.2,5.6,4.4,5.6,7.9s-2.3,6.7-5.6,7.9l-0.6,0.2v9.9l1.4-0.9c0.1,0,0.1-0.1,0.1-0.1c0.3-0.2,0.6-0.2,1-0.2
				c0.8,0,1.5,0.4,1.9,1.1l1.5,2.7c0.3,0.5,0.4,1.1,0.2,1.6c-0.2,0.6-0.5,1-1,1.3c-0.3,0.2-0.7,0.3-1.1,0.3c-0.8,0-1.5-0.4-1.9-1.1
				l-2.2-3.8v48.9c0,1.2-1,2.2-2.2,2.2H157.9z M154.8,69.6c2.9,0,5.2,2.4,5.2,5.2v117.9h14.1l0-130.2c0-3.9-3.2-7.1-7.1-7.1H81
				c-3.9,0-7.1,3.2-7.1,7.1v130.2H88V74.8c0-2.9,2.4-5.2,5.2-5.2H154.8z"/>
		</g>
	</g>
</g>
</svg>
