<?xml version="1.0" encoding="utf-8"?>
<!-- Generator: Adobe Illustrator 23.0.1, SVG Export Plug-In . SVG Version: 6.00 Build 0)  -->
<svg version="1.1" xmlns="http://www.w3.org/2000/svg" xmlns:xlink="http://www.w3.org/1999/xlink" x="0px" y="0px"
	 viewBox="0 0 248.1 248.1" style="enable-background:new 0 0 248.1 248.1;" xml:space="preserve">
<style type="text/css">
	.st0{display:none;}
	.st1{display:inline;}
	.st2{opacity:0.25;clip-path:url(#SVGID_2_);}
	.st3{fill:#FFC400;}
	.st4{opacity:0.22;clip-path:url(#SVGID_4_);fill:url(#SVGID_5_);}
	.st5{opacity:0.22;clip-path:url(#SVGID_7_);fill:url(#SVGID_8_);}
	.st6{opacity:0.22;clip-path:url(#SVGID_10_);fill:url(#SVGID_11_);}
	.st7{opacity:0.22;clip-path:url(#SVGID_13_);fill:url(#SVGID_14_);}
	.st8{opacity:0.17;clip-path:url(#SVGID_16_);}
	.st9{opacity:0.5;}
	.st10{fill:#032880;}
	.st11{opacity:0.5;clip-path:url(#SVGID_16_);}
	.st12{clip-path:url(#SVGID_16_);fill:#032880;}
	.st13{opacity:0.22;clip-path:url(#SVGID_16_);}
	.st14{fill:url(#SVGID_17_);}
	.st15{fill:url(#SVGID_18_);}
	.st16{fill:url(#SVGID_19_);}
	.st17{fill:url(#SVGID_20_);}
	.st18{fill:url(#SVGID_21_);}
	.st19{fill:#2D2D2D;}
	.st20{fill:url(#SVGID_22_);}
	.st21{fill:url(#SVGID_23_);}
	.st22{fill:url(#SVGID_24_);}
	.st23{display:inline;fill:#27B016;}
	.st24{opacity:0.22;clip-path:url(#SVGID_26_);fill:url(#SVGID_27_);}
	.st25{opacity:0.22;clip-path:url(#SVGID_29_);fill:url(#SVGID_30_);}
	.st26{opacity:0.17;clip-path:url(#SVGID_32_);}
	.st27{opacity:0.5;clip-path:url(#SVGID_32_);}
	.st28{clip-path:url(#SVGID_32_);fill:#032880;}
	.st29{opacity:0.22;clip-path:url(#SVGID_32_);}
	.st30{fill:url(#SVGID_33_);}
	.st31{fill:url(#SVGID_34_);}
	.st32{fill:url(#SVGID_35_);}
	.st33{fill:url(#SVGID_36_);}
	.st34{fill:url(#SVGID_37_);}
	.st35{fill:url(#SVGID_38_);}
	.st36{fill:url(#SVGID_39_);}
	.st37{fill:url(#SVGID_40_);}
	.st38{opacity:0.22;clip-path:url(#SVGID_42_);fill:url(#SVGID_43_);}
	.st39{opacity:0.22;clip-path:url(#SVGID_45_);fill:url(#SVGID_46_);}
	.st40{opacity:0.17;clip-path:url(#SVGID_48_);}
	.st41{opacity:0.5;clip-path:url(#SVGID_48_);}
	.st42{clip-path:url(#SVGID_48_);fill:#032880;}
	.st43{opacity:0.22;clip-path:url(#SVGID_48_);}
	.st44{fill:url(#SVGID_49_);}
	.st45{fill:url(#SVGID_50_);}
	.st46{fill:url(#SVGID_51_);}
	.st47{fill:url(#SVGID_52_);}
	.st48{fill:url(#SVGID_53_);}
	.st49{fill:url(#SVGID_54_);}
	.st50{fill:url(#SVGID_55_);}
	.st51{fill:url(#SVGID_56_);}
	.st52{display:inline;fill:#FFC400;}
	.st53{display:inline;fill:#636363;}
	.st54{fill:#636363;}
	.st55{fill:#EFF2F4;}
	.st56{fill:#F7F7F7;}
	.st57{fill:#0757E5;}
	.st58{clip-path:url(#SVGID_58_);fill:#E6E4E2;}
	.st59{clip-path:url(#SVGID_58_);fill:#C6BBB6;}
	.st60{opacity:0.33;fill:url(#SVGID_59_);}
	.st61{fill:#FFFFFF;}
	.st62{clip-path:url(#SVGID_65_);fill:url(#SVGID_66_);}
	.st63{clip-path:url(#SVGID_68_);fill:url(#SVGID_69_);}
	.st64{clip-path:url(#SVGID_71_);fill:url(#SVGID_72_);}
	.st65{fill:none;stroke:#282828;stroke-width:2.5;stroke-linejoin:round;stroke-miterlimit:10;}
	.st66{fill:#282828;}
	.st67{fill:none;}
	.st68{clip-path:url(#SVGID_74_);fill:#E6E4E2;}
	.st69{clip-path:url(#SVGID_74_);fill:#C6BBB6;}
	.st70{opacity:0.48;fill:url(#SVGID_75_);}
	.st71{fill:#1E1E1E;}
	.st72{fill-rule:evenodd;clip-rule:evenodd;fill:#1E1E1E;}
	.st73{clip-path:url(#SVGID_77_);}
	.st74{fill:none;stroke:#FFC400;stroke-width:3;stroke-miterlimit:10;}
	.st75{clip-path:url(#SVGID_85_);fill:url(#SVGID_86_);}
	.st76{clip-path:url(#SVGID_88_);fill:url(#SVGID_89_);}
	.st77{clip-path:url(#SVGID_91_);fill:url(#SVGID_92_);}
	.st78{clip-path:url(#SVGID_94_);fill:#E6E4E2;}
	.st79{clip-path:url(#SVGID_94_);fill:#C6BBB6;}
	.st80{opacity:0.48;fill:url(#SVGID_95_);}
	.st81{clip-path:url(#SVGID_97_);}
	.st82{fill:none;stroke:#0757E5;stroke-width:3;stroke-miterlimit:10;}
	.st83{clip-path:url(#SVGID_105_);}
	.st84{clip-path:url(#SVGID_109_);fill:url(#SVGID_110_);}
	.st85{clip-path:url(#SVGID_112_);fill:url(#SVGID_113_);}
	.st86{clip-path:url(#SVGID_115_);fill:url(#SVGID_116_);}
	.st87{clip-path:url(#SVGID_118_);fill:#E6E4E2;}
	.st88{clip-path:url(#SVGID_118_);fill:#C6BBB6;}
	.st89{opacity:0.48;fill:url(#SVGID_119_);}
	.st90{clip-path:url(#SVGID_125_);fill:url(#SVGID_126_);}
	.st91{clip-path:url(#SVGID_128_);fill:url(#SVGID_129_);}
	.st92{clip-path:url(#SVGID_131_);fill:url(#SVGID_132_);}
	.st93{clip-path:url(#SVGID_134_);fill:#E6E4E2;}
	.st94{clip-path:url(#SVGID_134_);fill:#C6BBB6;}
	.st95{opacity:0.48;fill:url(#SVGID_135_);}
	.st96{clip-path:url(#SVGID_137_);}
	.st97{clip-path:url(#SVGID_145_);fill:url(#SVGID_146_);}
	.st98{clip-path:url(#SVGID_148_);fill:url(#SVGID_149_);}
	.st99{clip-path:url(#SVGID_151_);fill:url(#SVGID_152_);}
	.st100{clip-path:url(#SVGID_154_);fill:#E6E4E2;}
	.st101{clip-path:url(#SVGID_154_);fill:#C6BBB6;}
	.st102{opacity:0.48;fill:url(#SVGID_155_);}
	.st103{clip-path:url(#SVGID_157_);}
	.st104{fill:none;stroke:#FFFFFF;stroke-miterlimit:10;}
	.st105{fill:none;stroke:#1E1E1E;stroke-miterlimit:10;}
	.st106{fill:#303030;}
	.st107{fill:url(#SVGID_164_);}
	.st108{fill:url(#SVGID_165_);}
	.st109{fill:url(#SVGID_166_);}
	.st110{clip-path:url(#SVGID_168_);fill:#E6E4E2;}
	.st111{clip-path:url(#SVGID_168_);fill:#C6BBB6;}
	.st112{opacity:0.48;fill:url(#SVGID_169_);}
	.st113{clip-path:url(#SVGID_171_);}
	.st114{fill:url(#SVGID_178_);}
	.st115{fill:url(#SVGID_179_);}
	.st116{fill:url(#SVGID_180_);}
	.st117{clip-path:url(#SVGID_182_);fill:#E6E4E2;}
	.st118{clip-path:url(#SVGID_182_);fill:#C6BBB6;}
	.st119{opacity:0.48;fill:url(#SVGID_183_);}
	.st120{clip-path:url(#SVGID_185_);}
	.st121{fill:url(#SVGID_192_);}
	.st122{fill:url(#SVGID_193_);}
	.st123{fill:url(#SVGID_194_);}
</style>
<g id="background" class="st0">
</g>
<g id="Layer_1">
	<g>
		<g>
			<circle class="st82" cx="124.1" cy="124.1" r="122.6"/>
		</g>
		<g>
			<g>
				<g>
					<path class="st57" d="M104.6,150.8h-7.3v-7.3c0-1.3-1.1-2.4-2.4-2.4c-1.3,0-2.4,1.1-2.4,2.4v7.3h-7.3c-1.3,0-2.4,1.1-2.4,2.4
						c0,1.3,1.1,2.4,2.4,2.4h7.3v7.3c0,1.3,1.1,2.4,2.4,2.4c1.3,0,2.4-1.1,2.4-2.4v-7.3h7.3c1.3,0,2.4-1.1,2.4-2.4
						C107,151.9,105.9,150.8,104.6,150.8z"/>
				</g>
			</g>
			<g>
				<g>
					<path class="st57" d="M153.3,141.1c-6.7,0-12.2,5.5-12.2,12.2s5.5,12.2,12.2,12.2s12.2-5.5,12.2-12.2S160,141.1,153.3,141.1z
						 M153.3,160.6c-4,0-7.3-3.3-7.3-7.3c0-4,3.3-7.3,7.3-7.3c4,0,7.3,3.3,7.3,7.3C160.6,157.3,157.3,160.6,153.3,160.6z"/>
				</g>
			</g>
			<g>
				<g>
					<path class="st57" d="M177.6,121.6c-1.3,0-2.4,1.1-2.4,2.4v13.9c-4.9-6.9-12.9-11.4-21.9-11.4h-26.8v-7.3c0-4,3.3-7.3,7.3-7.3
						h43.8c1.3,0,2.4-1.1,2.4-2.4c0-1.3-1.1-2.4-2.4-2.4h-43.8c-6.7,0-12.2,5.5-12.2,12.2v7.3H94.8c-9.1,0-17.1,4.5-21.9,11.4V87.5
						h21.9c1.3,0,2.4-1.1,2.4-2.4c0-1.3-1.1-2.4-2.4-2.4H72.9v-7.3c0-1.3,1.1-2.4,2.4-2.4H107v12.2c0,1.3,1.1,2.4,2.4,2.4h29.2
						c1.3,0,2.4-1.1,2.4-2.4V72.9h31.7c1.3,0,2.4,1.1,2.4,2.4v7.3h-21.9c-1.3,0-2.4,1.1-2.4,2.4c0,1.3,1.1,2.4,2.4,2.4h21.9v7.3
						c0,1.3,1.1,2.4,2.4,2.4c1.3,0,2.4-1.1,2.4-2.4V75.3c0-4-3.3-7.3-7.3-7.3H75.3c-4,0-7.3,3.3-7.3,7.3v77.9
						c0,14.8,12,26.8,26.8,26.8c8.1,0,15.5-3.5,20.6-9.7h17.2c5.1,6.2,12.6,9.7,20.6,9.7c14.8,0,26.8-12,26.8-26.8v-29.2
						C180.1,122.7,179,121.6,177.6,121.6z M111.9,72.9h24.4v9.7h-24.4V72.9z M153.3,175.2c-7,0-13.3-3.2-17.5-8.8
						c-0.5-0.6-1.2-1-1.9-1h-19.5c-0.8,0-1.5,0.4-1.9,1c-4.2,5.6-10.6,8.8-17.5,8.8c-12.1,0-21.9-9.8-21.9-21.9
						c0-12.1,9.8-21.9,21.9-21.9h26.8v9.7h-7.3c-1.3,0-2.4,1.1-2.4,2.4c0,1.3,1.1,2.4,2.4,2.4h19.5c1.3,0,2.4-1.1,2.4-2.4
						c0-1.3-1.1-2.4-2.4-2.4h-7.3v-9.7h26.8c12.1,0,21.9,9.8,21.9,21.9C175.2,165.4,165.4,175.2,153.3,175.2z"/>
				</g>
			</g>
		</g>
	</g>
</g>
</svg>
