<?xml version="1.0" encoding="utf-8"?>
<!-- Generator: Adobe Illustrator 23.0.1, SVG Export Plug-In . SVG Version: 6.00 Build 0)  -->
<svg version="1.1" xmlns="http://www.w3.org/2000/svg" xmlns:xlink="http://www.w3.org/1999/xlink" x="0px" y="0px"
	 viewBox="0 0 248.1 248.1" style="enable-background:new 0 0 248.1 248.1;" xml:space="preserve">
<style type="text/css">
	.st0{display:none;}
	.st1{display:inline;}
	.st2{opacity:0.25;clip-path:url(#SVGID_2_);}
	.st3{fill:#FFC400;}
	.st4{opacity:0.22;clip-path:url(#SVGID_4_);fill:url(#SVGID_5_);}
	.st5{opacity:0.22;clip-path:url(#SVGID_7_);fill:url(#SVGID_8_);}
	.st6{opacity:0.22;clip-path:url(#SVGID_10_);fill:url(#SVGID_11_);}
	.st7{opacity:0.22;clip-path:url(#SVGID_13_);fill:url(#SVGID_14_);}
	.st8{opacity:0.17;clip-path:url(#SVGID_16_);}
	.st9{opacity:0.5;}
	.st10{fill:#032880;}
	.st11{opacity:0.5;clip-path:url(#SVGID_16_);}
	.st12{clip-path:url(#SVGID_16_);fill:#032880;}
	.st13{opacity:0.22;clip-path:url(#SVGID_16_);}
	.st14{fill:url(#SVGID_17_);}
	.st15{fill:url(#SVGID_18_);}
	.st16{fill:url(#SVGID_19_);}
	.st17{fill:url(#SVGID_20_);}
	.st18{fill:url(#SVGID_21_);}
	.st19{fill:#2D2D2D;}
	.st20{fill:url(#SVGID_22_);}
	.st21{fill:url(#SVGID_23_);}
	.st22{fill:url(#SVGID_24_);}
	.st23{display:inline;fill:#27B016;}
	.st24{opacity:0.22;clip-path:url(#SVGID_26_);fill:url(#SVGID_27_);}
	.st25{opacity:0.22;clip-path:url(#SVGID_29_);fill:url(#SVGID_30_);}
	.st26{opacity:0.17;clip-path:url(#SVGID_32_);}
	.st27{opacity:0.5;clip-path:url(#SVGID_32_);}
	.st28{clip-path:url(#SVGID_32_);fill:#032880;}
	.st29{opacity:0.22;clip-path:url(#SVGID_32_);}
	.st30{fill:url(#SVGID_33_);}
	.st31{fill:url(#SVGID_34_);}
	.st32{fill:url(#SVGID_35_);}
	.st33{fill:url(#SVGID_36_);}
	.st34{fill:url(#SVGID_37_);}
	.st35{fill:url(#SVGID_38_);}
	.st36{fill:url(#SVGID_39_);}
	.st37{fill:url(#SVGID_40_);}
	.st38{opacity:0.22;clip-path:url(#SVGID_42_);fill:url(#SVGID_43_);}
	.st39{opacity:0.22;clip-path:url(#SVGID_45_);fill:url(#SVGID_46_);}
	.st40{opacity:0.17;clip-path:url(#SVGID_48_);}
	.st41{opacity:0.5;clip-path:url(#SVGID_48_);}
	.st42{clip-path:url(#SVGID_48_);fill:#032880;}
	.st43{opacity:0.22;clip-path:url(#SVGID_48_);}
	.st44{fill:url(#SVGID_49_);}
	.st45{fill:url(#SVGID_50_);}
	.st46{fill:url(#SVGID_51_);}
	.st47{fill:url(#SVGID_52_);}
	.st48{fill:url(#SVGID_53_);}
	.st49{fill:url(#SVGID_54_);}
	.st50{fill:url(#SVGID_55_);}
	.st51{fill:url(#SVGID_56_);}
	.st52{display:inline;fill:#FFC400;}
	.st53{display:inline;fill:#636363;}
	.st54{fill:#636363;}
	.st55{fill:#EFF2F4;}
	.st56{fill:#F7F7F7;}
	.st57{fill:#0757E5;}
	.st58{clip-path:url(#SVGID_58_);fill:#E6E4E2;}
	.st59{clip-path:url(#SVGID_58_);fill:#C6BBB6;}
	.st60{opacity:0.33;fill:url(#SVGID_59_);}
	.st61{fill:#FFFFFF;}
	.st62{clip-path:url(#SVGID_65_);fill:url(#SVGID_66_);}
	.st63{clip-path:url(#SVGID_68_);fill:url(#SVGID_69_);}
	.st64{clip-path:url(#SVGID_71_);fill:url(#SVGID_72_);}
	.st65{fill:none;stroke:#282828;stroke-width:2.5;stroke-linejoin:round;stroke-miterlimit:10;}
	.st66{fill:#282828;}
	.st67{fill:none;}
	.st68{clip-path:url(#SVGID_74_);fill:#E6E4E2;}
	.st69{clip-path:url(#SVGID_74_);fill:#C6BBB6;}
	.st70{opacity:0.48;fill:url(#SVGID_75_);}
	.st71{fill:#1E1E1E;}
	.st72{fill-rule:evenodd;clip-rule:evenodd;fill:#1E1E1E;}
	.st73{clip-path:url(#SVGID_77_);}
	.st74{fill:none;stroke:#FFC400;stroke-width:3;stroke-miterlimit:10;}
	.st75{clip-path:url(#SVGID_85_);fill:url(#SVGID_86_);}
	.st76{clip-path:url(#SVGID_88_);fill:url(#SVGID_89_);}
	.st77{clip-path:url(#SVGID_91_);fill:url(#SVGID_92_);}
	.st78{clip-path:url(#SVGID_94_);fill:#E6E4E2;}
	.st79{clip-path:url(#SVGID_94_);fill:#C6BBB6;}
	.st80{opacity:0.48;fill:url(#SVGID_95_);}
	.st81{clip-path:url(#SVGID_97_);}
	.st82{fill:none;stroke:#0757E5;stroke-width:3;stroke-miterlimit:10;}
	.st83{clip-path:url(#SVGID_105_);}
	.st84{clip-path:url(#SVGID_109_);fill:url(#SVGID_110_);}
	.st85{clip-path:url(#SVGID_112_);fill:url(#SVGID_113_);}
	.st86{clip-path:url(#SVGID_115_);fill:url(#SVGID_116_);}
	.st87{clip-path:url(#SVGID_118_);fill:#E6E4E2;}
	.st88{clip-path:url(#SVGID_118_);fill:#C6BBB6;}
	.st89{opacity:0.48;fill:url(#SVGID_119_);}
	.st90{clip-path:url(#SVGID_125_);fill:url(#SVGID_126_);}
	.st91{clip-path:url(#SVGID_128_);fill:url(#SVGID_129_);}
	.st92{clip-path:url(#SVGID_131_);fill:url(#SVGID_132_);}
	.st93{clip-path:url(#SVGID_134_);fill:#E6E4E2;}
	.st94{clip-path:url(#SVGID_134_);fill:#C6BBB6;}
	.st95{opacity:0.48;fill:url(#SVGID_135_);}
	.st96{clip-path:url(#SVGID_137_);}
	.st97{clip-path:url(#SVGID_145_);fill:url(#SVGID_146_);}
	.st98{clip-path:url(#SVGID_148_);fill:url(#SVGID_149_);}
	.st99{clip-path:url(#SVGID_151_);fill:url(#SVGID_152_);}
	.st100{clip-path:url(#SVGID_154_);fill:#E6E4E2;}
	.st101{clip-path:url(#SVGID_154_);fill:#C6BBB6;}
	.st102{opacity:0.48;fill:url(#SVGID_155_);}
	.st103{clip-path:url(#SVGID_157_);}
	.st104{fill:none;stroke:#FFFFFF;stroke-miterlimit:10;}
	.st105{fill:none;stroke:#1E1E1E;stroke-miterlimit:10;}
	.st106{fill:#303030;}
	.st107{fill:url(#SVGID_164_);}
	.st108{fill:url(#SVGID_165_);}
	.st109{fill:url(#SVGID_166_);}
	.st110{clip-path:url(#SVGID_168_);fill:#E6E4E2;}
	.st111{clip-path:url(#SVGID_168_);fill:#C6BBB6;}
	.st112{opacity:0.48;fill:url(#SVGID_169_);}
	.st113{clip-path:url(#SVGID_171_);}
	.st114{fill:url(#SVGID_178_);}
	.st115{fill:url(#SVGID_179_);}
	.st116{fill:url(#SVGID_180_);}
	.st117{clip-path:url(#SVGID_182_);fill:#E6E4E2;}
	.st118{clip-path:url(#SVGID_182_);fill:#C6BBB6;}
	.st119{opacity:0.48;fill:url(#SVGID_183_);}
	.st120{clip-path:url(#SVGID_185_);}
	.st121{fill:url(#SVGID_192_);}
	.st122{fill:url(#SVGID_193_);}
	.st123{fill:url(#SVGID_194_);}
</style>
<g id="background" class="st0">
</g>
<g id="Layer_1">
	<g>
		<g>
			<circle class="st82" cx="124.1" cy="124.1" r="122.6"/>
		</g>
		<g>
			<path class="st57" d="M170.1,128.2c-5.4-6-12.3-10.3-19.8-12.7c0,0,0,0,0,0c-2.7-0.9-5.5-1.5-8.3-1.8c-0.2-0.4-0.5-0.8-0.8-1.2
				v-11.1c2.5-2.6,4.2-6,4.9-9.6c3.7-0.3,6.7-3.4,6.7-7.2v-4.2c0-3.2-2.6-5.7-5.7-5.7c-0.2,0-0.4,0-0.6,0v-6.6
				c0-11.5-9.4-20.9-20.9-20.9h-2.8c-11.5,0-20.9,9.4-20.9,20.9v6.6c-0.2,0-0.4,0-0.6,0c-3.2,0-5.7,2.6-5.7,5.7v4.2
				c0,3.8,3,6.9,6.7,7.2c0.7,3.6,2.4,6.9,4.9,9.6v11.1c-0.3,0.3-0.6,0.7-0.8,1.1c-2.8,0.3-5.6,1-8.3,1.8c0,0,0,0,0,0
				c-7.5,2.4-14.4,6.8-19.8,12.7c-7.7,8.4-11.9,19.3-11.9,30.7v6.4c0,1.2,1,2.1,2.1,2.1c1.2,0,2.1-1,2.1-2.1v-6.4
				c0-9.9,3.4-19,9.3-26.2l5.9,11.2c3.6,6.8,5.4,14.4,5.4,22.1v22.6H71.1c-0.4,0-0.7-0.3-0.7-0.7v-12.1c0-1.2-1-2.1-2.1-2.1
				c-1.2,0-2.1,1-2.1,2.1v12.1c0,2.7,2.2,5,5,5H177c2.7,0,5-2.2,5-5v-29C182,147.5,177.8,136.6,170.1,128.2L170.1,128.2z
				 M136.9,112.2c-0.2,0.3-0.3,0.6-0.4,0.9c-0.2,1.1,0.5,2.2,1.6,2.4v9.5l-4.7-2.2c0-0.3-0.1-0.6-0.2-0.9l-1.8-5.6
				c-0.6-1.8-2.3-3-4.2-3h-5.9c-0.6,0-1.2,0.1-1.7,0.3l-8.3-2.1v-6.8l7.8,4.7c1.6,0.9,3.3,1.4,5.1,1.4c1.7,0,3.5-0.5,5.1-1.4
				l7.8-4.7L136.9,112.2L136.9,112.2z M110,115.6l6.7,1.7l-1.5,4.6c-0.1,0.2-0.1,0.5-0.2,0.7L110,125V115.6z M119.4,123.4
				c0,0-0.1-0.1,0-0.1l1.8-5.6c0-0.1,0.1-0.1,0.1-0.1h5.9c0.1,0,0.1,0,0.1,0.1l1.8,5.6c0,0.1,0,0.1,0,0.1l-4.8,3.5c0,0-0.1,0-0.1,0
				L119.4,123.4z M105.8,125.8l-4-7c1.3-0.3,2.7-0.6,4-0.8V125.8z M109.3,129.7c0.5,0,1-0.1,1.5-0.3l5.8-2.7
				c0.1,0.1,0.2,0.1,0.3,0.2l1.8,1.3l-2.3,15.9l-8.4-14.6C108.3,129.6,108.8,129.7,109.3,129.7L109.3,129.7z M122.5,130.8
				c0.5,0.2,1.1,0.3,1.7,0.3c0.6,0,1.2-0.1,1.7-0.3l2.7,18.6l-4.6,8l-4.3-7.5L122.5,130.8z M132.1,143.5l-2.2-15.4l1.8-1.3
				c0,0,0.1-0.1,0.1-0.1l5.5,2.6c0.5,0.2,1,0.3,1.5,0.3c0.5,0,1-0.1,1.4-0.3L132.1,143.5z M142.3,118c1.4,0.2,2.7,0.5,4,0.8l-4,7
				V118z M122.7,51.5h2.8c8,0,14.7,5.6,16.3,13.1c-0.7-0.2-1.4-0.4-2.2-0.4h-30.9c-0.8,0-1.5,0.1-2.2,0.4
				C108,57.1,114.7,51.5,122.7,51.5L122.7,51.5z M104,87.5h-1.4c-1.6,0-2.9-1.3-2.9-2.9v-4.2c0-0.8,0.7-1.5,1.5-1.5
				c0.5,0,1.1,0.2,1.5,0.5c0.7,0.5,1.5,0.5,2.2,0.2c0.7-0.4,1.2-1.1,1.2-1.9v-6.6c0-1.4,1.1-2.6,2.6-2.6h30.9c1.4,0,2.6,1.1,2.6,2.6
				v6.6c-0.1,1.7,2,2.8,3.4,1.7c0.4-0.3,1-0.5,1.5-0.5c0.8,0,1.5,0.7,1.5,1.5v4.2c0,1.6-1.3,2.9-2.9,2.9h-1.4c-1.1,0-2,0.9-2.1,2
				c-0.4,4.7-3,8.9-7,11.4l-8.1,4.9c-1.8,1.1-3.9,1.1-5.7,0l-8.1-4.9c-4-2.4-6.6-6.7-7-11.4C106,88.4,105.1,87.5,104,87.5L104,87.5z
				 M177.7,187.9c0,0.4-0.3,0.7-0.7,0.7h-19.9V166c0-4.6,0.7-9.1,1.9-13.5c0.3-1.1-0.3-2.3-1.4-2.7c-1.1-0.3-2.3,0.3-2.7,1.4
				c-1.4,4.8-2.1,9.7-2.1,14.7v22.6H95.3V166c0-8.4-2.1-16.7-5.9-24.1l-6.6-12.6c4.2-4.1,9.2-7.3,14.8-9.3l23.5,40.6
				c0.6,1.1,1.8,1.8,3.1,1.8c1.3,0,2.4-0.7,3.1-1.8l23.4-40.6c5.6,2,10.7,5.3,14.8,9.3l-6.6,12.6c-0.5,1-0.1,2.3,0.9,2.9
				c0.3,0.2,0.7,0.2,1,0.2c0.8,0,1.5-0.4,1.9-1.1l5.9-11.2c5.8,7.1,9.3,16.3,9.3,26.2L177.7,187.9L177.7,187.9z"/>
			<circle class="st57" cx="133.6" cy="81.4" r="2.6"/>
			<circle class="st57" cx="114.5" cy="81.4" r="2.6"/>
			<path class="st57" d="M118.4,96.2c1.7,1.2,3.7,1.8,5.8,1.8s4.1-0.6,5.8-1.8c1-0.7,1.2-2,0.5-3c-0.7-1-2-1.2-3-0.5
				c-1,0.7-2.1,1.1-3.4,1.1c-1.2,0-2.4-0.4-3.4-1.1c-1-0.7-2.3-0.4-3,0.5C117.2,94.2,117.5,95.5,118.4,96.2L118.4,96.2z"/>
			<path class="st57" d="M144.7,163.1h-13.2c-2.1,0-3.8,1.7-3.8,3.8v5.1c0,2.1,1.7,3.8,3.8,3.8h13.2c2.1,0,3.8-1.7,3.8-3.8V167
				C148.5,164.8,146.8,163.1,144.7,163.1z M144.2,171.7h-12.4v-4.3h12.4V171.7z"/>
		</g>
	</g>
</g>
</svg>
