<svg xmlns="http://www.w3.org/2000/svg" width="22.637" height="25.871" viewBox="0 0 22.637 25.871">
  <path id="Icon_awesome-discord" data-name="Icon awesome-discord" d="M15.018,12.289A1.324,1.324,0,1,1,13.7,10.853,1.378,1.378,0,0,1,15.018,12.289ZM8.977,10.853a1.441,1.441,0,0,0,0,2.872A1.378,1.378,0,0,0,10.3,12.289,1.37,1.37,0,0,0,8.977,10.853Zm13.66-8.188V25.871c-3.259-2.88-2.217-1.927-6-5.446l.686,2.393H2.652A2.658,2.658,0,0,1,0,20.154V2.665A2.658,2.658,0,0,1,2.652,0H19.986A2.658,2.658,0,0,1,22.637,2.665ZM18.951,14.928a17.323,17.323,0,0,0-1.863-7.541,6.4,6.4,0,0,0-3.635-1.358l-.181.207a8.609,8.609,0,0,1,3.221,1.643A10.991,10.991,0,0,0,6.83,7.5c-.479.22-.763.375-.763.375a8.727,8.727,0,0,1,3.4-1.695L9.34,6.028A6.4,6.4,0,0,0,5.7,7.386a17.323,17.323,0,0,0-1.863,7.541,4.69,4.69,0,0,0,3.945,1.966s.479-.582.867-1.074A4.023,4.023,0,0,1,6.39,14.294c.19.133.5.306.53.323a9.429,9.429,0,0,0,8.072.453,7.4,7.4,0,0,0,1.488-.763,4.082,4.082,0,0,1-2.341,1.539c.388.492.854,1.048.854,1.048A4.729,4.729,0,0,0,18.951,14.928Z" fill="#fff"/>
</svg>
