<svg xmlns="http://www.w3.org/2000/svg" width="102" height="102" viewBox="0 0 102 102">
  <g id="Group_46" data-name="Group 46" transform="translate(1.5 1.5)">
    <g id="Group_44" data-name="Group 44">
      <circle id="Ellipse_7" data-name="Ellipse 7" cx="49.5" cy="49.5" r="49.5" fill="none" stroke="#fff" stroke-miterlimit="10" stroke-width="3"/>
    </g>
    <g id="Group_45" data-name="Group 45" transform="translate(26.123 18.451)">
      <path id="Path_217" data-name="Path 217" d="M108.15,79.9a18.2,18.2,0,0,0-7.994-5.128h0A16.023,16.023,0,0,0,96.8,74.05a3.367,3.367,0,0,0-.323-.484V69.083a7.753,7.753,0,0,0,1.978-3.876A2.942,2.942,0,0,0,101.16,62.3V60.6a2.3,2.3,0,0,0-2.3-2.3h-.242V55.638A8.461,8.461,0,0,0,90.183,47.2H89.052a8.461,8.461,0,0,0-8.438,8.438V58.3h-.242a2.3,2.3,0,0,0-2.3,2.3v1.7a2.942,2.942,0,0,0,2.705,2.907,7.922,7.922,0,0,0,1.978,3.876v4.482a1.793,1.793,0,0,0-.323.444,19.079,19.079,0,0,0-3.351.727h0a18.562,18.562,0,0,0-7.994,5.128,18.281,18.281,0,0,0-4.8,12.4v2.584a.85.85,0,0,0,1.7,0V92.259A16.58,16.58,0,0,1,71.731,81.68l2.383,4.52a19.053,19.053,0,0,1,2.18,8.923v9.125H68.178a.276.276,0,0,1-.283-.283V99.082a.85.85,0,0,0-1.7,0v4.885a2.025,2.025,0,0,0,2.019,2.019h42.717a2.025,2.025,0,0,0,2.019-2.019V92.259a18.256,18.256,0,0,0-4.8-12.355Zm-13.4-6.46a1.434,1.434,0,0,0-.161.363.828.828,0,0,0,.646.969v3.836l-1.9-.888a1.179,1.179,0,0,0-.081-.363L92.525,75.1a1.783,1.783,0,0,0-1.7-1.211H88.447a1.886,1.886,0,0,0-.686.121l-3.351-.848V70.416l3.149,1.9a4.158,4.158,0,0,0,2.059.565,4.275,4.275,0,0,0,2.059-.565l3.149-1.9-.081,3.028ZM83.884,74.817l2.705.686-.606,1.857c-.04.081-.04.2-.081.283l-2.019.969Zm3.8,3.149s-.04-.04,0-.04l.727-2.261a.04.04,0,0,1,.04-.04h2.382c.04,0,.04,0,.04.04l.727,2.261v.04l-1.938,1.413h-.04Zm-5.491.969-1.615-2.826c.525-.121,1.09-.242,1.615-.323ZM83.6,80.51a1.62,1.62,0,0,0,.606-.121l2.342-1.09c.04.04.081.04.121.081l.727.525-.929,6.42L83.075,80.43a1.792,1.792,0,0,0,.525.081Zm5.33.444a2.005,2.005,0,0,0,1.373,0l1.09,7.51-1.857,3.23L87.8,88.665Zm3.876,5.128-.888-6.218.727-.525.04-.04,2.221,1.05a1.62,1.62,0,0,0,.606.121,1.29,1.29,0,0,0,.565-.121Zm4.118-10.3c.565.081,1.09.2,1.615.323l-1.615,2.826ZM89.01,48.932h1.131a6.717,6.717,0,0,1,6.581,5.289,3.15,3.15,0,0,0-.888-.162H83.359a2.173,2.173,0,0,0-.888.162,6.64,6.64,0,0,1,6.541-5.289ZM81.46,63.467H80.9A1.172,1.172,0,0,1,79.726,62.3V60.6a.621.621,0,0,1,.605-.6,1.088,1.088,0,0,1,.606.2.884.884,0,0,0,.888.081.9.9,0,0,0,.484-.767V56.85a1.042,1.042,0,0,1,1.05-1.05H95.835a1.042,1.042,0,0,1,1.05,1.05v2.665a.853.853,0,0,0,1.373.686,1.088,1.088,0,0,1,.606-.2.621.621,0,0,1,.606.606v1.7a1.172,1.172,0,0,1-1.17,1.164h-.565a.874.874,0,0,0-.848.808,6.028,6.028,0,0,1-2.826,4.6l-3.27,1.978a2.154,2.154,0,0,1-2.3,0l-3.27-1.978a5.962,5.962,0,0,1-2.826-4.6,1.025,1.025,0,0,0-.929-.808ZM111.217,104a.276.276,0,0,1-.283.283H102.9V95.166a20.66,20.66,0,0,1,.767-5.451.868.868,0,1,0-1.655-.525,21.092,21.092,0,0,0-.848,5.935v9.125H77.949V95.166a21.386,21.386,0,0,0-2.382-9.73L72.9,80.348a16.489,16.489,0,0,1,5.976-3.755l9.488,16.392a1.426,1.426,0,0,0,1.252.727,1.475,1.475,0,0,0,1.252-.727l9.448-16.392a16.691,16.691,0,0,1,5.976,3.755l-2.665,5.087a.917.917,0,0,0,.363,1.171.728.728,0,0,0,.4.081.866.866,0,0,0,.767-.444l2.382-4.522A16.727,16.727,0,0,1,111.3,92.3l-.081,11.709Z" transform="translate(-66.2 -47.2)" fill="#fff"/>
      <circle id="Ellipse_8" data-name="Ellipse 8" cx="1.05" cy="1.05" r="1.05" transform="translate(26.163 12.759)" fill="#fff"/>
      <circle id="Ellipse_9" data-name="Ellipse 9" cx="1.05" cy="1.05" r="1.05" transform="translate(18.451 12.759)" fill="#fff"/>
      <path id="Path_218" data-name="Path 218" d="M117.839,93.866a4.136,4.136,0,0,0,4.684,0,.868.868,0,0,0-1.009-1.413,2.323,2.323,0,0,1-1.373.444,2.417,2.417,0,0,1-1.373-.444.888.888,0,0,0-1.211.2,1,1,0,0,0,.283,1.211Z" transform="translate(-96.763 -74.082)" fill="#fff"/>
      <path id="Path_219" data-name="Path 219" d="M134.564,163.1h-5.33a1.534,1.534,0,0,0-1.534,1.534v2.059a1.534,1.534,0,0,0,1.534,1.534h5.33a1.534,1.534,0,0,0,1.534-1.534v-2.019a1.543,1.543,0,0,0-1.534-1.574Zm-.2,3.472h-5.007v-1.736h5.007Z" transform="translate(-102.869 -116.305)" fill="#fff"/>
    </g>
  </g>
</svg>
