<svg xmlns="http://www.w3.org/2000/svg" width="102" height="102" viewBox="0 0 102 102">
  <g id="Group_43" data-name="Group 43" transform="translate(1.5 1.5)">
    <g id="Group_35" data-name="Group 35">
      <circle id="Ellipse_6" data-name="Ellipse 6" cx="49.5" cy="49.5" r="49.5" fill="none" stroke="#fff" stroke-miterlimit="10" stroke-width="3"/>
    </g>
    <g id="Group_42" data-name="Group 42" transform="translate(26.85 26.85)">
      <g id="Group_37" data-name="Group 37" transform="translate(5.976 29.514)">
        <g id="Group_36" data-name="Group 36">
          <path id="Path_214" data-name="Path 214" d="M91.6,145.016H88.654v-2.947a.969.969,0,0,0-1.938,0v2.947H83.769a.969.969,0,1,0,0,1.938h2.947V149.9a.969.969,0,0,0,1.938,0v-2.947H91.6a.969.969,0,1,0,0-1.938Z" transform="translate(-82.8 -141.1)" fill="#fff"/>
        </g>
      </g>
      <g id="Group_39" data-name="Group 39" transform="translate(29.514 29.514)">
        <g id="Group_38" data-name="Group 38">
          <path id="Path_215" data-name="Path 215" d="M146.026,141.1a4.926,4.926,0,1,0,4.926,4.926,4.926,4.926,0,0,0-4.926-4.926Zm0,7.873a2.947,2.947,0,1,1,2.947-2.947A2.947,2.947,0,0,1,146.026,148.973Z" transform="translate(-141.1 -141.1)" fill="#fff"/>
        </g>
      </g>
      <g id="Group_41" data-name="Group 41">
        <g id="Group_40" data-name="Group 40">
          <path id="Path_216" data-name="Path 216" d="M112.251,89.641a.982.982,0,0,0-.969.969v5.612a10.842,10.842,0,0,0-8.842-4.6H91.62v-2.95a2.964,2.964,0,0,1,2.947-2.947h17.684a.969.969,0,1,0,0-1.938H94.567a4.945,4.945,0,0,0-4.926,4.926V91.66H78.821a10.731,10.731,0,0,0-8.842,4.6V75.873h8.842a.969.969,0,0,0,0-1.938H69.978V70.988a.982.982,0,0,1,.969-.969h12.8v4.926a.982.982,0,0,0,.969.969H96.5a.982.982,0,0,0,.969-.969V69.978h12.8a.982.982,0,0,1,.969.969v2.947H102.4a.969.969,0,0,0,0,1.938h8.842V78.78a.969.969,0,0,0,1.938,0V70.947A2.964,2.964,0,0,0,110.232,68H70.947A2.964,2.964,0,0,0,68,70.947V102.4a10.821,10.821,0,0,0,10.82,10.82,10.652,10.652,0,0,0,8.318-3.916h6.945a10.712,10.712,0,0,0,8.317,3.916A10.821,10.821,0,0,0,113.22,102.4V90.61a.932.932,0,0,0-.969-.969ZM85.725,69.978h9.852v3.916H85.725Zm16.715,41.3a8.722,8.722,0,0,1-7.066-3.553,1.04,1.04,0,0,0-.767-.4H86.734a.919.919,0,0,0-.767.4A8.835,8.835,0,1,1,78.9,93.6H89.722v3.916H86.774a.969.969,0,0,0,0,1.938h7.873a.969.969,0,0,0,0-1.938H91.7V93.6h10.821a8.84,8.84,0,0,1,8.842,8.844,8.961,8.961,0,0,1-8.923,8.838Z" transform="translate(-68 -68)" fill="#fff"/>
        </g>
      </g>
    </g>
  </g>
</svg>
