<svg xmlns="http://www.w3.org/2000/svg" width="102.004" height="102.004" viewBox="0 0 102.004 102.004">
  <g id="Group_15" data-name="Group 15" transform="translate(1.5 1.5)">
    <g id="Group_13" data-name="Group 13">
      <circle id="Ellipse_4" data-name="Ellipse 4" cx="49.502" cy="49.502" r="49.502" transform="translate(0 0)" fill="none" stroke="#fff" stroke-miterlimit="10" stroke-width="3"/>
    </g>
    <g id="Group_14" data-name="Group 14" transform="translate(20.027 20.027)">
      <path id="Path_194" data-name="Path 194" d="M116.309,92.317a5.221,5.221,0,1,1,3.706-1.515,5.209,5.209,0,0,1-3.706,1.515Zm0-8.681a3.472,3.472,0,1,0,3.472,3.472,3.472,3.472,0,0,0-3.472-3.472Z" transform="translate(-86.874 -69.464)" fill="#fff"/>
      <path id="Path_195" data-name="Path 195" d="M104.843,146.678a.9.9,0,0,1-.888-.888V131.738h-2.867a.9.9,0,0,1-.888-.888V117.93a3.188,3.188,0,0,1,1.171-2.544,14.051,14.051,0,0,1,16.8,0,3.188,3.188,0,0,1,1.171,2.544v12.92a.9.9,0,0,1-.888.888h-2.867V145.79a.9.9,0,0,1-.888.888Zm5.007-32.261a12.284,12.284,0,0,0-7.349,2.463,1.418,1.418,0,0,0-.485,1.131v12.032h2.867a.9.9,0,0,1,.888.888v14.051h8.2V130.931a.9.9,0,0,1,.888-.888h2.867V118.01a1.48,1.48,0,0,0-.485-1.131,12.492,12.492,0,0,0-7.391-2.462Z" transform="translate(-80.375 -87.768)" fill="#fff"/>
      <path id="Path_196" data-name="Path 196" d="M104.288,62.077a.888.888,0,1,1,.888-.888.955.955,0,0,1-.888.888Z" transform="translate(-82.283 -56.585)" fill="#fff"/>
      <path id="Path_197" data-name="Path 197" d="M122.688,62.077a.888.888,0,1,1,.888-.888A.9.9,0,0,1,122.688,62.077Z" transform="translate(-93.254 -56.585)" fill="#fff"/>
      <path id="Path_198" data-name="Path 198" d="M141.188,62.077a.888.888,0,1,1,.888-.888A.9.9,0,0,1,141.188,62.077Z" transform="translate(-104.284 -56.585)" fill="#fff"/>
      <path id="Path_199" data-name="Path 199" d="M51.988,126.677a.889.889,0,0,1,0-1.777H53.24a.888.888,0,1,1,0,1.777Z" transform="translate(-51.1 -95.102)" fill="#fff"/>
      <path id="Path_200" data-name="Path 200" d="M55.286,138.182a.866.866,0,0,1-.767-.444.742.742,0,0,1-.081-.646.762.762,0,0,1,.4-.525l1.09-.646a.814.814,0,0,1,.444-.121.866.866,0,0,1,.767.444.742.742,0,0,1,.081.646.762.762,0,0,1-.4.525l-1.09.646A1.053,1.053,0,0,1,55.286,138.182Z" transform="translate(-53.065 -101.601)" fill="#fff"/>
      <path id="Path_201" data-name="Path 201" d="M56.3,114.882a.814.814,0,0,1-.444-.121l-1.09-.646a.857.857,0,0,1-.4-.525.885.885,0,0,1,.081-.646.866.866,0,0,1,.767-.444.814.814,0,0,1,.444.121l1.09.646a.857.857,0,0,1,.4.525.886.886,0,0,1-.081.646.866.866,0,0,1-.767.444Z" transform="translate(-53.032 -87.709)" fill="#fff"/>
      <path id="Path_202" data-name="Path 202" d="M190.488,126.677a.889.889,0,1,1,0-1.777h1.252a.888.888,0,1,1,0,1.777Z" transform="translate(-133.679 -95.102)" fill="#fff"/>
      <path id="Path_203" data-name="Path 203" d="M187.586,114.882a.866.866,0,0,1-.767-.444.742.742,0,0,1-.081-.646.762.762,0,0,1,.4-.525l1.09-.646a.814.814,0,0,1,.444-.121.866.866,0,0,1,.767.444.742.742,0,0,1,.081.646.762.762,0,0,1-.4.525l-1.09.646A.814.814,0,0,1,187.586,114.882Z" transform="translate(-131.947 -87.709)" fill="#fff"/>
      <path id="Path_204" data-name="Path 204" d="M188.7,138.182a.814.814,0,0,1-.444-.121l-1.09-.646a.857.857,0,0,1-.4-.525.886.886,0,0,1,.081-.646.866.866,0,0,1,.767-.444.814.814,0,0,1,.444.121l1.09.646a.857.857,0,0,1,.4.525.886.886,0,0,1-.081.646.866.866,0,0,1-.767.444Z" transform="translate(-131.973 -101.601)" fill="#fff"/>
      <path id="Path_205" data-name="Path 205" d="M101.494,110.009a.9.9,0,0,1-.888-.888V60.265H75.047v48.856a.9.9,0,0,1-.888.888h-7.47a.9.9,0,0,1-.888-.888v-19.7l-.848,1.494a.866.866,0,0,1-.767.444.92.92,0,0,1-.444-.121.857.857,0,0,1-.4-.525.726.726,0,0,1,.081-.646l.606-1.09a.866.866,0,0,1,.767-.444,1.435,1.435,0,0,1,.4.081h0l.081.04.525.283v-3.88l-.2-.081a3.442,3.442,0,0,1-2.261-3.19A3.386,3.386,0,0,1,65.6,78.6l.242-.081V74.6l-.606.323h0a.664.664,0,0,1-.4.081.866.866,0,0,1-.767-.444l-.606-1.09a.742.742,0,0,1-.081-.646.892.892,0,0,1,.4-.525.814.814,0,0,1,.444-.121.866.866,0,0,1,.767.444l.848,1.494V55.7a4.6,4.6,0,0,1,4.6-4.6h34.8a4.6,4.6,0,0,1,4.6,4.6V74.2l.888-1.534a.866.866,0,0,1,.767-.444.92.92,0,0,1,.444.121.857.857,0,0,1,.4.525.726.726,0,0,1-.081.646l-.606,1.09a.866.866,0,0,1-.767.444,1.2,1.2,0,0,1-.4-.081l-.04-.04-.565-.363v3.917l.242.081a3.386,3.386,0,0,1,2.261,3.19,3.442,3.442,0,0,1-2.261,3.19l-.242.081v4l.565-.363a.04.04,0,0,0,.04-.04.664.664,0,0,1,.4-.081.866.866,0,0,1,.767.444l.606,1.09a.742.742,0,0,1,.081.646.892.892,0,0,1-.4.525.814.814,0,0,1-.444.121.866.866,0,0,1-.767-.444l-.888-1.534v19.744a.9.9,0,0,1-.888.888h-7.47Zm-1.252-51.44a2.111,2.111,0,0,1,2.1,2.1v47.6h5.693V55.7a2.878,2.878,0,0,0-2.867-2.867H70.444A2.878,2.878,0,0,0,67.577,55.7v52.57H73.27V60.67a2.111,2.111,0,0,1,2.1-2.1Z" transform="translate(-58.372 -51.1)" fill="#fff"/>
    </g>
  </g>
</svg>
