<svg xmlns="http://www.w3.org/2000/svg" width="30.868" height="30.868" viewBox="0 0 30.868 30.868">
  <g id="Group_35269" data-name="Group 35269" transform="translate(-1734.566 -65.566)">
    <circle id="Ellipse_25" data-name="Ellipse 25" cx="13" cy="13" r="13" transform="translate(1737 68)" fill="#fff"/>
    <path id="Icon_awesome-user-circle" data-name="Icon awesome-user-circle" d="M15.434.563A15.434,15.434,0,1,0,30.868,16,15.431,15.431,0,0,0,15.434.563Zm0,5.974a5.477,5.477,0,1,1-5.477,5.477A5.477,5.477,0,0,1,15.434,6.537Zm0,21.408A11.926,11.926,0,0,1,6.317,23.7a6.939,6.939,0,0,1,6.13-3.722,1.523,1.523,0,0,1,.442.068,8.24,8.24,0,0,0,2.545.429,8.209,8.209,0,0,0,2.545-.429,1.523,1.523,0,0,1,.442-.068,6.939,6.939,0,0,1,6.13,3.722A11.926,11.926,0,0,1,15.434,27.945Z" transform="translate(1734.566 65.004)" fill="#1f2430"/>
  </g>
</svg>
