<svg id="Layer_1" data-name="Layer 1" xmlns="http://www.w3.org/2000/svg" viewBox="0 0 1229.54 1229.54"><defs><style>.cls-1{fill:#1f2430;}.cls-2{fill:#fff;}</style></defs><title>icons</title><circle class="cls-1" cx="614.77" cy="614.77" r="614.77"/><path class="cls-2" d="M508.43,386a76,76,0,1,1,76-76,76.11,76.11,0,0,1-76,76m0-133a57,57,0,1,0,57,57,57,57,0,0,0-57-57"/><path class="cls-2" d="M546.67,558.67a9.47,9.47,0,0,1-6.3-2.38l-38.24-33.71a9.53,9.53,0,0,1,12.6-14.29L553,542a9.53,9.53,0,0,1-6.31,16.67"/><path class="cls-2" d="M456.76,656.35H380.71a9.53,9.53,0,0,1-9.53-9.53V494.89a42.34,42.34,0,0,1,42.3-42.29h43.29a9.53,9.53,0,0,1,9.53,9.53V646.82a9.52,9.52,0,0,1-9.53,9.53m-66.53-19.06h57V471.66H413.47a23.26,23.26,0,0,0-23.24,23.24v142.4Z"/><path class="cls-2" d="M413.47,471.66a9.53,9.53,0,0,1-9.53-9.53V428.72a9.53,9.53,0,1,1,19.06,0v33.41a9.53,9.53,0,0,1-9.53,9.53"/><path class="cls-2" d="M464.74,776h-1.23c-22.33-.43-40.17-8.45-53-23.83-31-37.1-20.52-104.08-20.06-106.91a9.53,9.53,0,0,1,18.82,3c-0.1.61-9.49,61.3,15.9,91.69,9.27,11.08,21.93,16.63,38.7,17h0.92c63.68,0,157.73-125.92,188.75-174.69a9.53,9.53,0,1,1,16.08,10.22C664.82,600,551.9,776,464.74,776"/><path class="cls-2" d="M800.42,621.24H661.57a9.52,9.52,0,0,1-9.53-9.53V563.83a9.53,9.53,0,0,1,9.53-9.53H800.42a33.47,33.47,0,0,1,0,66.93M671.1,602.18H800.42a14.41,14.41,0,0,0,0-28.82H671.1v28.82Z"/><path class="cls-2" d="M600.92,940H485.49a9.52,9.52,0,0,1-9.53-9.53V692.67c-15-4.86-28.73-20.38-28.73-39.84V462.13a50.28,50.28,0,0,1,50.22-50.23H515.1A41.15,41.15,0,0,1,556.2,453v15.26l59.17,52.16h93.89c20.2,0,37.46,15.17,39.3,34.52a37.54,37.54,0,0,1-.56,10.59,9.53,9.53,0,0,1-9.38,7.82H671.1v14a9.53,9.53,0,0,1-9.53,9.53H600.92a38.24,38.24,0,0,1-25.3-9.57L556.2,570.24V866.18h7.47a46.82,46.82,0,0,1,46.77,46.77v17.56a9.52,9.52,0,0,1-9.53,9.53M495,921h96.37v-8a27.74,27.74,0,0,0-27.72-27.71h-17a9.53,9.53,0,0,1-9.53-9.53V549.14A9.53,9.53,0,0,1,553,542l35.25,31.08a19.2,19.2,0,0,0,12.7,4.8H652v-14a9.53,9.53,0,0,1,9.53-9.53h67.61c-2.06-8.49-10.34-14.82-19.92-14.82H611.77a9.52,9.52,0,0,1-6.3-2.38l-65.1-57.39a9.51,9.51,0,0,1-3.23-7.14V453a22.07,22.07,0,0,0-22-22H497.45a31.2,31.2,0,0,0-31.16,31.17v190.7c0,12.32,10.54,22.32,19.27,22.39a9.53,9.53,0,0,1,9.46,9.53V921Z"/><path class="cls-2" d="M853.6,597.3H824.35a9.53,9.53,0,1,1,0-19.06H853.6a9.53,9.53,0,0,1,0,19.06"/><path class="cls-2" d="M763.7,940h-383a9.53,9.53,0,1,1,0-19.06h383a9.53,9.53,0,1,1,0,19.06"/><path class="cls-2" d="M966.19,540.48H963.4a9.53,9.53,0,0,1,0-19.06h2.79a9.53,9.53,0,0,1,0,19.06"/><path class="cls-2" d="M966.19,568.89H963.4a9.53,9.53,0,0,1,0-19.06h2.79a9.53,9.53,0,1,1,0,19.06"/><path class="cls-2" d="M966.19,597.3H963.4a9.53,9.53,0,0,1,0-19.06h2.79a9.53,9.53,0,1,1,0,19.06"/><path class="cls-2" d="M966.19,625.72H963.4a9.53,9.53,0,0,1,0-19.06h2.79a9.53,9.53,0,1,1,0,19.06"/><path class="cls-2" d="M966.19,654.12H963.4a9.53,9.53,0,0,1,0-19.06h2.79a9.53,9.53,0,1,1,0,19.06"/><path class="cls-2" d="M938.94,540.48h-2.79a9.53,9.53,0,1,1,0-19.06h2.79a9.53,9.53,0,0,1,0,19.06"/><path class="cls-2" d="M938.94,568.89h-2.79a9.53,9.53,0,1,1,0-19.06h2.79a9.53,9.53,0,1,1,0,19.06"/><path class="cls-2" d="M938.94,597.3h-2.79a9.53,9.53,0,1,1,0-19.06h2.79a9.53,9.53,0,1,1,0,19.06"/><path class="cls-2" d="M938.94,625.72h-2.79a9.53,9.53,0,1,1,0-19.06h2.79a9.53,9.53,0,1,1,0,19.06"/><path class="cls-2" d="M938.94,654.12h-2.79a9.53,9.53,0,1,1,0-19.06h2.79a9.53,9.53,0,1,1,0,19.06"/><path class="cls-2" d="M911.69,568.89H908.9a9.53,9.53,0,1,1,0-19.06h2.79a9.53,9.53,0,0,1,0,19.06"/><path class="cls-2" d="M911.69,597.3H908.9a9.53,9.53,0,1,1,0-19.06h2.79a9.53,9.53,0,0,1,0,19.06"/><path class="cls-2" d="M911.69,625.72H908.9a9.53,9.53,0,1,1,0-19.06h2.79a9.53,9.53,0,0,1,0,19.06"/><path class="cls-2" d="M884.44,597.3h-2.79a9.53,9.53,0,1,1,0-19.06h2.79a9.53,9.53,0,0,1,0,19.06"/></svg>