<svg id="Layer_1" data-name="Layer 1" xmlns="http://www.w3.org/2000/svg" viewBox="0 0 1229.54 1229.54"><defs><style>.cls-1{fill:#1f2430;}.cls-2{fill:#fff;}.cls-3{fill:none;}</style></defs><title>icons</title><circle class="cls-1" cx="614.77" cy="614.77" r="614.77"/><path class="cls-2" d="M880.55,312H339.31A36,36,0,0,0,303.38,348V853.28a36,36,0,0,0,35.92,35.92v6a30,30,0,0,0,29.93,29.94h35.92a30,30,0,0,0,29.93-29.94v-6H784.75v6a30,30,0,0,0,29.93,29.94h35.92a30,30,0,0,0,29.94-29.94v-6a36,36,0,0,0,35.92-35.92V348A36,36,0,0,0,880.55,312m12,541.24a12,12,0,0,1-12,12H339.31a12,12,0,0,1-12-12V431.78H459.05A36,36,0,0,0,495,395.86v-12H892.52v469.4Zm0-493.34H327.33V348a12,12,0,0,1,12-12H880.55a12,12,0,0,1,12,12v12Z"/><rect class="cls-3" x="278.95" y="289.86" width="649.81" height="649.81"/></svg>