<svg id="whatsapp-symbol" xmlns="http://www.w3.org/2000/svg" xmlns:xlink="http://www.w3.org/1999/xlink" width="24" height="24.108" viewBox="0 0 24 24.108">
  <defs>
    <linearGradient id="linear-gradient" x1="0.5" y1="1" x2="0.5" gradientUnits="objectBoundingBox">
      <stop offset="0" stop-color="#20b038"/>
      <stop offset="1" stop-color="#60d66a"/>
    </linearGradient>
  </defs>
  <path id="Path_6130" data-name="Path 6130" d="M20.5,3.5A11.951,11.951,0,0,0,1.7,17.917L0,24.108l6.335-1.661a11.942,11.942,0,0,0,5.71,1.454h.005A11.951,11.951,0,0,0,20.5,3.5ZM12.05,21.883h0A9.92,9.92,0,0,1,6.991,20.5l-.363-.215-3.759.986,1-3.664-.236-.376a9.933,9.933,0,1,1,8.414,4.653Z" fill="#e0e0e0"/>
  <path id="Path_6131" data-name="Path 6131" d="M27.875,44.084l1.618-5.907a11.4,11.4,0,1,1,9.882,5.71h-.005A11.4,11.4,0,0,1,33.92,42.5Z" transform="translate(-27.326 -20.663)" fill="url(#linear-gradient)"/>
  <rect id="Rectangle_71" data-name="Rectangle 71" width="13.421" height="12.575" transform="translate(5.333 5.734)" fill="none" opacity="0.08"/>
  <path id="Path_6132" data-name="Path 6132" d="M310.339,323.545c-.221-.492-.454-.5-.664-.51-.172-.007-.369-.007-.566-.007a1.084,1.084,0,0,0-.787.369,3.309,3.309,0,0,0-1.033,2.461,5.742,5.742,0,0,0,1.205,3.053,12.116,12.116,0,0,0,5.042,4.455c2.493.983,3,.788,3.542.738a2.981,2.981,0,0,0,1.992-1.4,2.465,2.465,0,0,0,.172-1.4c-.074-.123-.271-.2-.566-.344s-1.746-.862-2.017-.96-.467-.148-.664.148-.762.96-.934,1.157-.344.222-.64.074a8.073,8.073,0,0,1-2.374-1.465,8.889,8.889,0,0,1-1.642-2.044c-.172-.3-.018-.455.13-.6.133-.132.3-.345.443-.517a2.023,2.023,0,0,0,.295-.492.543.543,0,0,0-.025-.517C311.175,325.588,310.6,324.128,310.339,323.545Z" transform="translate(-301.242 -316.671)" fill="#fff" fill-rule="evenodd"/>
  <path id="Path_6133" data-name="Path 6133" d="M27.268,3.577A11.814,11.814,0,0,0,8.676,17.826L7,23.945,13.262,22.3a11.8,11.8,0,0,0,5.645,1.438h.005A11.813,11.813,0,0,0,27.268,3.577ZM18.912,21.746h0a9.806,9.806,0,0,1-5-1.368l-.359-.213-3.716.974.992-3.622-.234-.371a9.819,9.819,0,1,1,8.317,4.6Z" transform="translate(-6.862 -0.112)" fill="#fff"/>
</svg>
